<svg xmlns="http://www.w3.org/2000/svg" width="227.181" height="90.031" viewBox="0 0 227.181 90.031">
  <g id="Group_7" data-name="Group 7" transform="translate(-1301.382 -8214.625)">
    <path id="Path_5" data-name="Path 5" d="M1321.077,8288a.971.971,0,0,0,.134.491,2.641,2.641,0,0,1,1.2-.7,1.626,1.626,0,0,1,1.564-1.182,1.467,1.467,0,0,1,.187.011,2.065,2.065,0,0,0-1.351,1.236.967.967,0,0,0-.5,1.457,2.626,2.626,0,0,1,1.273-.788,1.691,1.691,0,0,1,1.478-1.349,1.79,1.79,0,0,0-.938,2.388.969.969,0,0,1,.933-.709.93.93,0,0,1,.319.054,1.3,1.3,0,0,0,1.737-1.221,1.332,1.332,0,0,0-.064-.411.823.823,0,0,1,.59.788.812.812,0,0,1-.142.459,1.7,1.7,0,0,0,.294.026,1.648,1.648,0,0,0,1.636-1.452,3.763,3.763,0,0,0,1.115-.925l.225,1.1a.445.445,0,0,1-.009.221.46.46,0,0,1-.111.192l.93-.956a.431.431,0,0,0,.11-.192.448.448,0,0,0,.009-.222l-.274-1.338a.437.437,0,0,1,.01-.222.446.446,0,0,1,.111-.191l.732-.746a.438.438,0,0,0-.112.191.472.472,0,0,0-.007.222l.273,1.34a.476.476,0,0,1-.007.223.467.467,0,0,1-.109.189l.83-.863a.463.463,0,0,0,.11-.192.444.444,0,0,0,.009-.221l-.274-1.337a.461.461,0,0,1,.12-.412l.732-.747a.459.459,0,0,0-.119.413l.275,1.341a.462.462,0,0,1-.117.41l.829-.862a.442.442,0,0,0,.11-.191.45.45,0,0,0,.009-.223l-.133-.653a1.641,1.641,0,0,1,1.229-1.676.979.979,0,0,0,.113-.45c0-.751-.894-1.359-2-1.359a2.556,2.556,0,0,0-1.389.382c.145.428.175.862-1.24,1.063a5.444,5.444,0,0,0-2.859,1.013c-1.157.981-1.063,2.293-1.721,2.789a2.434,2.434,0,0,0,1.063-.015,2.907,2.907,0,0,0,.689-.241,1.548,1.548,0,0,1-.775.62,1.733,1.733,0,0,1-1.089,1.11,1.592,1.592,0,0,1-.988.061l-1.353-.393a1.918,1.918,0,0,0-.522-.072,1.98,1.98,0,0,0-1.943,1.763.969.969,0,0,0-.832.96m13.385-53.542a10.144,10.144,0,0,1,2.672-1.879,1.455,1.455,0,0,1-.045-.356v-.008c-4.137.681-7.86,2.8-11.221,2.786-.942,0-1.681-.366-1.8-.962a.892.892,0,0,1,0-.36.517.517,0,1,1,.883.461,2.684,2.684,0,0,0,.3.016,2.893,2.893,0,0,0,.741-.093.853.853,0,0,0-.223-1.677l-.076,0a.995.995,0,0,1,1.379.913c0,.03,0,.058,0,.085a5.628,5.628,0,0,0,3.505-1.894,6.716,6.716,0,0,1-1.488.164,6.549,6.549,0,0,1-1.676-.209,8.216,8.216,0,0,0-1.99-.3c-1.812,0-3.281,1.182-3.281,2.64a2.76,2.76,0,0,0,2.374,2.539c3.138.641,6.829-1.223,9.947-1.869m-17.69,4.293a5.812,5.812,0,0,0,.1-1.284l-.4.464a3.647,3.647,0,0,0-.183-.39c-.043-.075-.08-.127-.132-.136a.384.384,0,0,1-.11.045.766.766,0,0,1-.161.008.784.784,0,0,1-.162-.008.4.4,0,0,1-.108-.045c-.053.009-.089.061-.133.136a3.712,3.712,0,0,0-.182.39l-.4-.464a5.755,5.755,0,0,0,.1,1.284,4.5,4.5,0,0,1,1.761,0m.176,1.19c.045-.5-.525-.681-1.057-.681s-1.1.179-1.058.681c.055.61.626.319,1.058.322s1,.288,1.057-.322m1.519-3.612a.212.212,0,0,0-.173.2.973.973,0,0,1-.684.962,5.526,5.526,0,0,1-.249,1.6c.454.949.106,1.612-.262,1.755-.351.136-.8-.048-1.2-.048s-.861.184-1.211.048c-.369-.143-.716-.806-.264-1.755a5.524,5.524,0,0,1-.247-1.6.976.976,0,0,1-.686-.962.21.21,0,0,0-.172-.2,1.721,1.721,0,0,1-.888-2.819c-.067.839-.14,2.024,1.575,2.182-.028.984.4,1.248.837,1.248a1.261,1.261,0,0,0,.653-.161c.319-.169.1-.43.018-.506a.864.864,0,0,1-.278-.786c.009-.051.029-.079.078-.079h1.162c.049,0,.07.028.079.079a.869.869,0,0,1-.278.786c-.082.076-.3.337.017.506a1.263,1.263,0,0,0,.654.161c.438,0,.864-.264.837-1.248,1.715-.157,1.642-1.343,1.574-2.182a1.721,1.721,0,0,1-.888,2.819m.465-3.271c0,.431-.315.909-.674.909h-.328a.576.576,0,1,1-.888,0h-.344a.3.3,0,0,0-.282.188,1.277,1.277,0,0,1-.005-.5.367.367,0,0,1,.328-.278h1.511a.843.843,0,0,0,.682-.314m-.2-.716h-.527a.743.743,0,0,1-.6-.284l-.6-.785a.8.8,0,0,0-.307-.27h.6a.569.569,0,0,1,.461.236l.628.8c.14.169.184.283.349.3m-2.754-1.3.77,1.082a.852.852,0,0,0,.4.345h-.706a.6.6,0,0,1-.553-.32l-.606-.93c-.232-.348-.323-.434-.589-.528h.655a.808.808,0,0,1,.626.352m-1.745.2.627.8c.14.169.184.283.349.3h-.527a.743.743,0,0,1-.6-.284l-.6-.785a.8.8,0,0,0-.307-.27h.6a.572.572,0,0,1,.462.236m-.38,2.728h-.33c-.357,0-.673-.479-.673-.909a.844.844,0,0,0,.682.314h1.512a.367.367,0,0,1,.328.278,1.315,1.315,0,0,1-.005.5.3.3,0,0,0-.282-.187h-.344a.576.576,0,1,1-1.021.367.57.57,0,0,1,.133-.367m-1.864,7.2.183-.357a.46.46,0,0,0-.008-.429l.5.9a.469.469,0,0,1,.057.213.45.45,0,0,1-.049.217l-.045.088a3.13,3.13,0,0,0-.277,2.369,1.333,1.333,0,0,1-.909-1.469c-1.4-1.326-1.752-2.672-.753-3.8l.513-.6a.43.43,0,0,0,.1-.2.444.444,0,0,0,0-.22l.267,1a.455.455,0,0,1,0,.223.463.463,0,0,1-.1.2l-.156.183c-.523.608-.383,1.433.436,2.173a4.149,4.149,0,0,1,.237-.491m34.324,3.741a1.154,1.154,0,0,0,.084-.434,1.134,1.134,0,0,0-1.132-1.136h-1.146a.45.45,0,0,1-.216-.053.455.455,0,0,1-.166-.147l-.574-.848a.44.44,0,0,0,.166.147.451.451,0,0,0,.215.053h1.51a.447.447,0,0,1,.216.053.438.438,0,0,1,.165.147l-.693-1.016a.446.446,0,0,0-.167-.146.439.439,0,0,0-.214-.054h-1.5a.458.458,0,0,1-.215-.054.445.445,0,0,1-.166-.146l-.652-.959a.459.459,0,0,0,.166.146.452.452,0,0,0,.216.056l1.5,0a.459.459,0,0,1,.381.2l-.693-1.016a.458.458,0,0,0-.167-.147.48.48,0,0,0-.214-.053h-1.2a.469.469,0,0,1-.215-.053.459.459,0,0,1-.166-.148l-.8-1.178c1.624-.194,2.934-1.074,3.2-2.287.339-1.572-1.226-3.1-3.489-3.43a.786.786,0,0,1-.163-1.514,1.992,1.992,0,0,0-.8-.163,1.718,1.718,0,0,0-1.813,1.6,1.433,1.433,0,0,0,.077.459,8.282,8.282,0,0,0-2.926,2.271,10.174,10.174,0,0,1,2.621-.342c0-.043-.006-.085-.006-.129a1.228,1.228,0,0,1,1.228-1.228h.017a1.128,1.128,0,0,0-.688.941.633.633,0,0,0,1,.52.868.868,0,0,1-.037-.253.878.878,0,0,1,.88-.878.778.778,0,0,1,.127.009.985.985,0,0,0,.417,1.877.961.961,0,0,0,.169-.014.716.716,0,0,1-.023-.181.706.706,0,0,1,1.412,0c0,.85-.943.928-1.629.73a13.3,13.3,0,0,0-5.56-.568c-2.274.319-6,1.855-9.951,1.728a12.271,12.271,0,0,1-2.82-.441,2.692,2.692,0,0,1,.247.3,1.981,1.981,0,0,1,.177,2.015,2.772,2.772,0,0,0-1.329-2.052c-.246-.179-.345-.35-.3-.577l.18-1.018a.452.452,0,0,0,.016.22.462.462,0,0,0,.116.188l.38.372a3.947,3.947,0,0,0-.7-2.876,3.747,3.747,0,0,0,.127-2.227,1.2,1.2,0,0,1-.6.955.792.792,0,0,0-.312,1.149c-.405-.206-.966-.959-.642-1.4.35-.475,1.306-.251,1.424-1.066a2.738,2.738,0,0,0-1.454,0,1.824,1.824,0,0,0-1.464-.627,3.435,3.435,0,0,0-3.7,0,1.824,1.824,0,0,0-1.464.627,2.747,2.747,0,0,0-1.456,0c.118.815,1.075.592,1.424,1.066.324.441-.235,1.194-.642,1.4a.79.79,0,0,0-.312-1.149,1.2,1.2,0,0,1-.6-.955,3.755,3.755,0,0,0,.127,2.227,3.938,3.938,0,0,0-.7,2.876l.381-.372a.463.463,0,0,0,.116-.188.45.45,0,0,0,.015-.22l.18,1.018c.041.228-.057.4-.3.577a2.765,2.765,0,0,0-1.33,2.052,1.988,1.988,0,0,1,.178-2.015,8.449,8.449,0,0,1-2.2-1.842,1.078,1.078,0,0,1,.013-1.383c.612-.876.758-1.812-.011-2.45a1.31,1.31,0,0,0,.008-.141,1.2,1.2,0,0,0-.962-1.174,1,1,0,0,1,.161.549,1.015,1.015,0,0,1-.207.617.845.845,0,0,1-.127,1.158,1.391,1.391,0,0,0,.027-.276,1.254,1.254,0,0,0-.872-1.236.936.936,0,0,0-1.594-.476.743.743,0,0,1,.679.657,1.256,1.256,0,0,0-.4.509h.023a1.108,1.108,0,0,1,1.109,1.108,1.161,1.161,0,0,1-.019.2,1.181,1.181,0,0,0-1.646-.895.936.936,0,0,0-1.529.086,1.069,1.069,0,0,1,.823.442,1.481,1.481,0,0,0,.006,1.95,1.2,1.2,0,0,0,1.257.247.326.326,0,0,1,.094-.014.295.295,0,1,1,0,.59.287.287,0,0,1-.188-.068.65.65,0,0,0-1.064.5.54.54,0,0,0,0,.081.627.627,0,0,1-.193.029.642.642,0,0,1-.45-.186.9.9,0,0,0-.028.222.866.866,0,0,0,.8.864,1.364,1.364,0,0,0,2.051.6.6.6,0,1,1,.474,1.07l-.464.1a.441.441,0,0,1-.223-.006.458.458,0,0,1-.192-.107l1.063,1.009a.445.445,0,0,0,.193.107.44.44,0,0,0,.223.007l.869-.192a.46.46,0,0,1,.414.114l.729.693a.469.469,0,0,0-.193-.108.456.456,0,0,0-.221-.007l-.869.192a.463.463,0,0,1-.415-.114l.975.924a.453.453,0,0,0,.191.109.464.464,0,0,0,.223,0l.871-.19a.448.448,0,0,1,.222.007.458.458,0,0,1,.193.108l.729.693a.458.458,0,0,0-.415-.115l-.868.192a.463.463,0,0,1-.223-.007.448.448,0,0,1-.193-.108l.974.923a.441.441,0,0,0,.193.109.452.452,0,0,0,.223.006l1.052-.23q-1.533.866-3.262,1.96a2.412,2.412,0,0,1-2.283.184,2.621,2.621,0,0,0-1.275-.151,1.389,1.389,0,0,0-.961.664,1.407,1.407,0,0,1,.515-.1,1.393,1.393,0,0,1,.98.4,1.9,1.9,0,0,0-1.374-.008,1.634,1.634,0,0,0-1.166,1.851.854.854,0,0,0-.29,1.407.875.875,0,0,1,.822-.683,1.629,1.629,0,0,0,.574.232,1.262,1.262,0,0,1,.237-.293,1.628,1.628,0,0,1-.014-.21,1.421,1.421,0,0,1,1.42-1.423,1.251,1.251,0,0,1,.192.015,1.419,1.419,0,0,0-1.088,1.381,1.469,1.469,0,0,0,.022.249.894.894,0,0,0-.364,1.409,1.588,1.588,0,0,1,1.263-.857,2.3,2.3,0,0,0,.655.094,2.427,2.427,0,0,0,.415-.036,1.105,1.105,0,0,1,.912-1.729,1.027,1.027,0,0,1,.156.011,1.135,1.135,0,0,0-.817,1.216.947.947,0,0,0,.794.63,1.422,1.422,0,0,1-.188.675,1.422,1.422,0,0,0,1.168-.784,1.148,1.148,0,0,0,.851-1.229.771.771,0,0,0-.291-.417c0-.016,0-.032,0-.049a.586.586,0,0,1,1.173,0,.582.582,0,0,1-.155.4h1.227a.462.462,0,0,0,.214-.054.449.449,0,0,0,.166-.148l.787-1.168a.313.313,0,0,1,.113-.1.308.308,0,0,1,.146-.037h.964a.312.312,0,0,0-.147.037.321.321,0,0,0-.113.1l-.79,1.168a.44.44,0,0,1-.165.148.462.462,0,0,1-.214.054h1.466a.459.459,0,0,0,.214-.054.442.442,0,0,0,.166-.148l.884-1.3a1.768,1.768,0,0,1-.86-1.72,10.291,10.291,0,0,1,.322-1.435l.018-.146a.464.464,0,0,0-.028-.22.724.724,0,0,0-.11-.188l.754.772a.429.429,0,0,1,.127.182.439.439,0,0,1,.03.22l-.023.177c-.036.307-.422.969.3,1.575a2.321,2.321,0,0,0,.209.146l.51.32v-1.88h.713v2.092a.46.46,0,0,0,.212.374l.7.444a.463.463,0,0,0,.211.07.472.472,0,0,0,.218-.036l1.285-.559a.468.468,0,0,1-.429-.034l-1.475-.938c.717-.606.329-1.269.293-1.575l-.021-.177a.461.461,0,0,1,.028-.22.468.468,0,0,1,.127-.182l.754-.772a.715.715,0,0,0-.108.188.452.452,0,0,0-.028.22l.016.146c.061.523.59,1.471.15,2l1.348.855a.463.463,0,0,0,.21.07.457.457,0,0,0,.22-.037l1.343-.584a.457.457,0,0,1-.217.036.451.451,0,0,1-.211-.07l-1.459-.928a2.918,2.918,0,0,0-.258-2.283l-.046-.088a.448.448,0,0,1-.048-.217.434.434,0,0,1,.057-.213l.5-.9a.438.438,0,0,0-.055.212.449.449,0,0,0,.047.217l.184.357a4,4,0,0,1,.236.491c.82-.74,1-1.453.48-2.061l-.156-.184a.456.456,0,0,1-.1-.2.443.443,0,0,1,0-.223l.267-1a.458.458,0,0,0,.1.418l.513.6c1,1.129.4,2.581-.8,3.688a2.044,2.044,0,0,1,.075.828l1.582,1a.471.471,0,0,0,.211.07.48.48,0,0,0,.219-.036l1.143-.5a.551.551,0,0,1-.212.044.532.532,0,0,1-.161-1.04c4.366-1.327,8.385-4.756,11.024-4.747,1.282,0,2.322.779,2.322,1.741a1.375,1.375,0,0,1-.078.45c-.562,1.58.257,3.089,2.421,3.672a.807.807,0,0,1,.6.779.843.843,0,0,1-.028.211,1.273,1.273,0,0,0,.151.007,1.757,1.757,0,0,0,1.441-.749c.372,0,.777-.025,1.192-.069a1.3,1.3,0,0,1,.114.341c.089.455-.069.865-.348.955a5.308,5.308,0,0,1-1.575-.026,1.623,1.623,0,0,0-1.608,1.622,1.43,1.43,0,0,0,.014.207.984.984,0,0,0-.338,1.319,2.424,2.424,0,0,1,1.036-.709,1.47,1.47,0,0,1,1.817-1.361,1.625,1.625,0,0,0-1.418,1.611,1.77,1.77,0,0,0,.01.178.7.7,0,0,0,.086.974,1.665,1.665,0,0,1,.986-.8,1.75,1.75,0,0,1,.887-.073,1.253,1.253,0,0,1-.062-.394,1.276,1.276,0,0,1,1.277-1.277,1.387,1.387,0,0,1,.192.014,1.009,1.009,0,0,0-.449,1.82c0,.017,0,.035,0,.054a.882.882,0,0,0,.327.687,1,1,0,0,1,.984-.812,3.34,3.34,0,0,0,1.022-.138,1.079,1.079,0,0,0,.364-1.861,5.4,5.4,0,0,0-.088-2.174.9.9,0,0,1,.116-.009.875.875,0,0,1,.729.395m-22.245,9.2a.892.892,0,0,1,0-.36.517.517,0,1,1,.883.462c.1.009.2.014.3.014a2.85,2.85,0,0,0,.741-.093.853.853,0,0,0-.223-1.676l-.076,0a.993.993,0,0,1,1.379.914c0,.027,0,.056,0,.084a5.637,5.637,0,0,0,3.505-1.893,6.775,6.775,0,0,1-1.488.163,6.506,6.506,0,0,1-1.676-.21,8.313,8.313,0,0,0-1.99-.3c-1.812,0-3.281,1.183-3.281,2.642a2.76,2.76,0,0,0,2.374,2.538c3.138.642,6.829-1.224,9.947-1.869a10.122,10.122,0,0,1,2.672-1.879,1.455,1.455,0,0,1-.045-.356v-.008c-4.137.68-7.86,2.8-11.221,2.786-.942,0-1.681-.365-1.8-.962m-.1-7.637a1.67,1.67,0,0,1,.187.011,2.07,2.07,0,0,0-1.351,1.235.968.968,0,0,0-.663.919.958.958,0,0,0,.164.538,2.646,2.646,0,0,1,1.273-.787,1.694,1.694,0,0,1,1.478-1.349,1.79,1.79,0,0,0-.938,2.388.971.971,0,0,1,.933-.71.931.931,0,0,1,.319.056,1.3,1.3,0,0,0,1.737-1.223,1.324,1.324,0,0,0-.064-.409.819.819,0,0,1,.448,1.247,1.613,1.613,0,0,0,.294.025,1.648,1.648,0,0,0,1.636-1.452,3.763,3.763,0,0,0,1.115-.925l.225,1.1a.455.455,0,0,1-.009.224.469.469,0,0,1-.111.191l.93-.957a.433.433,0,0,0,.11-.191.449.449,0,0,0,.009-.222l-.274-1.339a.433.433,0,0,1,.01-.221.438.438,0,0,1,.111-.192l.732-.747a.464.464,0,0,0-.112.192.476.476,0,0,0-.007.223l.273,1.34a.472.472,0,0,1-.007.222.452.452,0,0,1-.109.188l.83-.861a.469.469,0,0,0,.11-.192.444.444,0,0,0,.009-.221l-.274-1.337a.448.448,0,0,1,.009-.222.457.457,0,0,1,.111-.191l.732-.746a.45.45,0,0,0-.111.191.461.461,0,0,0-.008.222l.275,1.34a.455.455,0,0,1-.009.221.464.464,0,0,1-.108.19l.829-.862a.44.44,0,0,0,.11-.192.446.446,0,0,0,.009-.222l-.133-.654a1.642,1.642,0,0,1,1.229-1.677.968.968,0,0,0,.113-.45c0-.75-.894-1.358-2-1.358a2.548,2.548,0,0,0-1.389.383c.145.427.175.861-1.24,1.062a5.462,5.462,0,0,0-2.859,1.015c-1.157.98-1.063,2.292-1.721,2.788a2.434,2.434,0,0,0,1.063-.015,2.949,2.949,0,0,0,.689-.239,1.545,1.545,0,0,1-.775.617,1.732,1.732,0,0,1-1.089,1.112,1.6,1.6,0,0,1-.988.061l-1.353-.393a1.881,1.881,0,0,0-.522-.073,1.981,1.981,0,0,0-1.943,1.764.968.968,0,0,0-.7,1.45,2.648,2.648,0,0,1,1.2-.7,1.627,1.627,0,0,1,1.564-1.183m-7.2,12.349a5.808,5.808,0,0,0,.1-1.283l-.4.463a3.522,3.522,0,0,0-.183-.389c-.043-.076-.08-.127-.132-.138a.384.384,0,0,1-.11.046.766.766,0,0,1-.161.008.784.784,0,0,1-.162-.008.394.394,0,0,1-.108-.046c-.053.011-.089.062-.133.138a3.583,3.583,0,0,0-.182.389l-.4-.463a5.751,5.751,0,0,0,.1,1.283,4.5,4.5,0,0,1,1.761,0m.176,1.189c.045-.5-.525-.68-1.057-.68s-1.1.178-1.058.68c.055.611.626.32,1.058.323s1,.288,1.057-.323m1.519-3.611a.211.211,0,0,0-.173.2.972.972,0,0,1-.684.962,5.517,5.517,0,0,1-.249,1.6c.454.949.106,1.612-.262,1.754-.351.136-.8-.047-1.2-.047s-.861.183-1.211.047c-.369-.142-.716-.8-.264-1.754a5.516,5.516,0,0,1-.247-1.6.975.975,0,0,1-.686-.962.209.209,0,0,0-.172-.2,1.721,1.721,0,0,1-.888-2.818c-.067.839-.14,2.023,1.575,2.181-.028.984.4,1.248.837,1.248a1.258,1.258,0,0,0,.653-.162c.319-.169.1-.429.018-.5a.867.867,0,0,1-.278-.787c.009-.052.029-.079.078-.079h1.162c.049,0,.07.027.079.079a.872.872,0,0,1-.278.787c-.082.076-.3.336.017.5a1.26,1.26,0,0,0,.654.162c.438,0,.864-.264.837-1.248,1.715-.157,1.642-1.342,1.574-2.181a1.72,1.72,0,0,1-.888,2.818m.465-3.271c0,.43-.315.91-.674.91h-.328a.57.57,0,0,1,.132.366.576.576,0,1,1-1.152,0,.569.569,0,0,1,.132-.366h-.344a.3.3,0,0,0-.282.186,1.282,1.282,0,0,1-.005-.5.369.369,0,0,1,.328-.277h1.511a.845.845,0,0,0,.682-.313m-.2-.716h-.527a.746.746,0,0,1-.6-.284l-.6-.786a.784.784,0,0,0-.307-.269h.6a.57.57,0,0,1,.461.235l.628.8c.14.169.184.282.349.3m-2.754-1.3.77,1.083a.861.861,0,0,0,.4.344h-.706a.6.6,0,0,1-.553-.32l-.606-.93c-.232-.348-.323-.434-.589-.529h.655a.806.806,0,0,1,.626.353m-1.745.194.627.8c.14.169.184.282.349.3h-.527a.746.746,0,0,1-.6-.284l-.6-.786a.784.784,0,0,0-.307-.269h.6a.573.573,0,0,1,.462.235m-.38,2.729h-.33c-.357,0-.673-.48-.673-.91a.846.846,0,0,0,.682.313h1.512a.369.369,0,0,1,.328.277,1.32,1.32,0,0,1-.005.5.3.3,0,0,0-.282-.186h-.344a.569.569,0,0,1,.131.366.576.576,0,1,1-1.152,0,.56.56,0,0,1,.133-.366m-1.864,7.2.183-.358a.445.445,0,0,0,.049-.216.454.454,0,0,0-.057-.212l.5.9a.463.463,0,0,1,.057.213.455.455,0,0,1-.049.217l-.045.089a3.126,3.126,0,0,0-.277,2.368,1.333,1.333,0,0,1-.909-1.467c-1.4-1.328-1.752-2.673-.753-3.8l.513-.6a.431.431,0,0,0,.1-.2.44.44,0,0,0,0-.219l.267,1a.463.463,0,0,1-.095.42l-.156.182c-.523.609-.383,1.435.436,2.174a4.224,4.224,0,0,1,.237-.491m34.324,3.742a1.166,1.166,0,0,0,.084-.435,1.134,1.134,0,0,0-1.132-1.136h-1.146a.439.439,0,0,1-.216-.053.455.455,0,0,1-.166-.147l-.574-.848a.454.454,0,0,0,.166.146.44.44,0,0,0,.215.054h1.51a.458.458,0,0,1,.216.053.444.444,0,0,1,.165.146l-.693-1.015a.43.43,0,0,0-.167-.146.451.451,0,0,0-.214-.055h-1.5a.446.446,0,0,1-.215-.053.44.44,0,0,1-.166-.147l-.652-.959a.447.447,0,0,0,.166.147.462.462,0,0,0,.216.054h1.5a.448.448,0,0,1,.216.054.431.431,0,0,1,.165.146l-.693-1.015a.47.47,0,0,0-.167-.148.455.455,0,0,0-.214-.053h-1.2a.482.482,0,0,1-.215-.053.459.459,0,0,1-.166-.148l-.8-1.179c1.624-.193,2.934-1.073,3.2-2.285.339-1.573-1.226-3.1-3.489-3.431a.787.787,0,0,1-.163-1.515,2.009,2.009,0,0,0-.8-.162,1.718,1.718,0,0,0-1.813,1.6,1.438,1.438,0,0,0,.077.459,8.291,8.291,0,0,0-2.926,2.271,10.216,10.216,0,0,1,2.621-.341c0-.042-.006-.085-.006-.128a1.228,1.228,0,0,1,1.228-1.229h.017a1.127,1.127,0,0,0-.688.942.634.634,0,0,0,1,.519.867.867,0,0,1-.037-.252.879.879,0,0,1,.88-.88.9.9,0,0,1,.127.01.985.985,0,0,0,.417,1.877.876.876,0,0,0,.169-.015.706.706,0,1,1,1.389-.179c0,.848-.943.926-1.629.729a13.32,13.32,0,0,0-5.56-.569c-2.274.32-6,1.855-9.951,1.728a12.268,12.268,0,0,1-2.82-.44,2.692,2.692,0,0,1,.247.3,1.98,1.98,0,0,1,.177,2.014,2.774,2.774,0,0,0-1.329-2.051c-.246-.179-.345-.349-.3-.578l.18-1.017a.448.448,0,0,0,.016.219.459.459,0,0,0,.116.189l.38.371a3.948,3.948,0,0,0-.7-2.876,3.743,3.743,0,0,0,.127-2.226,1.2,1.2,0,0,1-.6.956.79.79,0,0,0-.312,1.148c-.405-.206-.966-.96-.642-1.4.35-.475,1.306-.251,1.424-1.066a2.752,2.752,0,0,0-1.454-.006,1.83,1.83,0,0,0-1.464-.627,3.435,3.435,0,0,0-3.7,0,1.83,1.83,0,0,0-1.464.627,2.76,2.76,0,0,0-1.456.006c.118.815,1.075.592,1.424,1.066.324.44-.235,1.194-.642,1.4a.789.789,0,0,0-.312-1.148,1.2,1.2,0,0,1-.6-.956,3.751,3.751,0,0,0,.127,2.226,3.939,3.939,0,0,0-.7,2.876l.381-.371a.46.46,0,0,0,.116-.189.446.446,0,0,0,.015-.219l.18,1.017c.041.229-.057.4-.3.578a2.767,2.767,0,0,0-1.33,2.051,1.986,1.986,0,0,1,.178-2.014,8.469,8.469,0,0,1-2.2-1.842,1.078,1.078,0,0,1,.013-1.383c.612-.876.758-1.811-.011-2.45a1.328,1.328,0,0,0,.008-.142,1.2,1.2,0,0,0-.962-1.175,1.021,1.021,0,0,1-.046,1.167.846.846,0,0,1-.127,1.159,1.391,1.391,0,0,0,.027-.276,1.252,1.252,0,0,0-.872-1.235.935.935,0,0,0-1.594-.478.744.744,0,0,1,.679.658,1.247,1.247,0,0,0-.4.508h.023a1.109,1.109,0,0,1,1.109,1.109,1.152,1.152,0,0,1-.019.2,1.182,1.182,0,0,0-1.646-.9.938.938,0,0,0-1.529.086,1.071,1.071,0,0,1,.823.444,1.48,1.48,0,0,0,.006,1.949,1.205,1.205,0,0,0,1.257.247.3.3,0,1,1,.094.576.292.292,0,0,1-.188-.067.649.649,0,0,0-1.064.5.527.527,0,0,0,0,.08.627.627,0,0,1-.193.029.641.641,0,0,1-.45-.185.893.893,0,0,0-.028.221.869.869,0,0,0,.8.866,1.365,1.365,0,0,0,2.051.6.6.6,0,1,1,.474,1.07l-.464.1a.452.452,0,0,1-.223-.006.458.458,0,0,1-.192-.107l1.063,1.008a.471.471,0,0,0,.193.109.476.476,0,0,0,.223.006l.869-.193a.444.444,0,0,1,.221.008.435.435,0,0,1,.193.107l.729.694a.461.461,0,0,0-.193-.109.444.444,0,0,0-.221-.006l-.869.191a.432.432,0,0,1-.221-.007.451.451,0,0,1-.194-.106l.975.922a.447.447,0,0,0,.414.115l.871-.19a.448.448,0,0,1,.222.006.471.471,0,0,1,.193.109l.729.693a.438.438,0,0,0-.193-.108.459.459,0,0,0-.222-.007l-.868.191a.473.473,0,0,1-.416-.113l.974.922a.429.429,0,0,0,.193.108.452.452,0,0,0,.223.008l1.052-.231q-1.533.866-3.262,1.96a2.417,2.417,0,0,1-2.283.184,2.621,2.621,0,0,0-1.275-.151,1.389,1.389,0,0,0-.961.664,1.387,1.387,0,0,1,1.495.3,1.9,1.9,0,0,0-1.374-.008,1.633,1.633,0,0,0-1.166,1.85.855.855,0,0,0-.29,1.408.875.875,0,0,1,.822-.683,1.646,1.646,0,0,0,.574.231,1.262,1.262,0,0,1,.237-.293,1.6,1.6,0,0,1-.014-.21,1.42,1.42,0,0,1,1.42-1.421,1.251,1.251,0,0,1,.192.013,1.42,1.42,0,0,0-1.088,1.382,1.469,1.469,0,0,0,.022.249.894.894,0,0,0-.364,1.409,1.588,1.588,0,0,1,1.263-.857,2.336,2.336,0,0,0,1.07.057,1.1,1.1,0,0,1,.912-1.728,1.361,1.361,0,0,1,.156.01,1.136,1.136,0,0,0-.817,1.216.944.944,0,0,0,.794.629,1.416,1.416,0,0,1-.188.675,1.417,1.417,0,0,0,1.168-.783,1.149,1.149,0,0,0,.851-1.229.771.771,0,0,0-.291-.417c0-.016,0-.033,0-.049a.586.586,0,0,1,1.173,0,.576.576,0,0,1-.155.4h1.227a.465.465,0,0,0,.38-.2l.787-1.167a.316.316,0,0,1,.259-.139h.964a.316.316,0,0,0-.26.139l-.79,1.168a.443.443,0,0,1-.165.146.45.45,0,0,1-.214.054h1.466a.448.448,0,0,0,.214-.054.439.439,0,0,0,.166-.147l.884-1.3a1.767,1.767,0,0,1-.86-1.719,10.212,10.212,0,0,1,.322-1.434l.018-.146a.461.461,0,0,0-.028-.22.745.745,0,0,0-.11-.189l.754.773a.433.433,0,0,1,.127.181.446.446,0,0,1,.03.222l-.023.176c-.036.307-.422.969.3,1.575a2.321,2.321,0,0,0,.209.146l.51.32v-1.88h.713v2.092a.464.464,0,0,0,.212.375l.7.442a.461.461,0,0,0,.429.034l1.285-.558a.44.44,0,0,1-.218.036.464.464,0,0,1-.211-.069l-1.475-.939c.717-.606.329-1.269.293-1.575l-.021-.176a.46.46,0,0,1,.155-.4l.754-.773a.735.735,0,0,0-.108.189.449.449,0,0,0-.028.22l.016.146c.061.521.59,1.47.15,2l1.348.854a.463.463,0,0,0,.21.07.445.445,0,0,0,.22-.037l1.343-.583a.456.456,0,0,1-.217.035.441.441,0,0,1-.211-.07l-1.459-.928a2.914,2.914,0,0,0-.258-2.282l-.046-.089a.453.453,0,0,1-.048-.217.428.428,0,0,1,.057-.213l.5-.9a.474.474,0,0,0-.008.428l.184.358a4.072,4.072,0,0,1,.236.491c.82-.739,1-1.453.48-2.061l-.156-.184a.461.461,0,0,1-.1-.2.443.443,0,0,1,0-.223l.267-1a.454.454,0,0,0,0,.22.445.445,0,0,0,.1.2l.513.6c1,1.128.4,2.581-.8,3.69a2.032,2.032,0,0,1,.075.826l1.582,1a.466.466,0,0,0,.43.033l1.143-.5a.551.551,0,0,1-.212.044.532.532,0,0,1-.161-1.04c4.366-1.329,8.385-4.757,11.024-4.748,1.282,0,2.322.78,2.322,1.742a1.37,1.37,0,0,1-.078.45c-.562,1.58.257,3.088,2.421,3.671a.81.81,0,0,1,.6.781.841.841,0,0,1-.028.21c.049,0,.1.007.151.007a1.762,1.762,0,0,0,1.441-.749c.372,0,.777-.025,1.192-.068a1.278,1.278,0,0,1,.114.34c.089.455-.069.865-.348.955a5.243,5.243,0,0,1-1.575-.028,1.625,1.625,0,0,0-1.608,1.623,1.443,1.443,0,0,0,.014.208.984.984,0,0,0-.338,1.319,2.424,2.424,0,0,1,1.036-.709,1.47,1.47,0,0,1,1.817-1.361,1.625,1.625,0,0,0-1.418,1.611c0,.059,0,.119.01.179a.69.69,0,0,0-.158.44.7.7,0,0,0,.244.531,1.653,1.653,0,0,1,.986-.8,1.763,1.763,0,0,1,.887-.075,1.247,1.247,0,0,1-.062-.393,1.277,1.277,0,0,1,1.277-1.278,1.14,1.14,0,0,1,.192.016,1.008,1.008,0,0,0-.449,1.818c0,.019,0,.036,0,.056a.88.88,0,0,0,.327.686,1,1,0,0,1,.984-.812,3.34,3.34,0,0,0,1.022-.138,1.085,1.085,0,0,0,.756-1.029,1.071,1.071,0,0,0-.392-.83,5.41,5.41,0,0,0-.088-2.176.9.9,0,0,1,.116-.008.869.869,0,0,1,.729.4m-22.245,9.2a.892.892,0,0,1,0-.36.517.517,0,1,1,.883.463c.1.009.2.014.3.014a2.938,2.938,0,0,0,.741-.092.853.853,0,0,0-.223-1.677.657.657,0,0,0-.076,0,.967.967,0,0,1,.387-.079.992.992,0,0,1,.992.992c0,.027,0,.057,0,.083a5.628,5.628,0,0,0,3.505-1.893,6.828,6.828,0,0,1-3.164-.045,8.264,8.264,0,0,0-1.99-.3c-1.812,0-3.281,1.181-3.281,2.64a2.76,2.76,0,0,0,2.374,2.538c3.138.641,6.829-1.223,9.947-1.869a10.216,10.216,0,0,1,2.672-1.88,1.428,1.428,0,0,1-.045-.354v-.008c-4.137.68-7.86,2.8-11.221,2.785-.942,0-1.681-.366-1.8-.962m-.1-7.636c.064,0,.126,0,.187.01a2.073,2.073,0,0,0-1.351,1.237.967.967,0,0,0-.5,1.457,2.633,2.633,0,0,1,1.273-.788,1.691,1.691,0,0,1,1.478-1.348,1.789,1.789,0,0,0-.938,2.387.969.969,0,0,1,.933-.709.93.93,0,0,1,.319.054,1.3,1.3,0,0,0,1.737-1.222,1.335,1.335,0,0,0-.064-.41.82.82,0,0,1,.448,1.248,1.7,1.7,0,0,0,.294.025,1.649,1.649,0,0,0,1.636-1.45,3.811,3.811,0,0,0,1.115-.926l.225,1.1a.462.462,0,0,1-.12.413l.93-.956a.431.431,0,0,0,.11-.192.444.444,0,0,0,.009-.221l-.274-1.339a.432.432,0,0,1,.01-.221.438.438,0,0,1,.111-.192l.732-.746a.438.438,0,0,0-.112.191.476.476,0,0,0-.007.223l.273,1.34a.468.468,0,0,1-.007.221.458.458,0,0,1-.109.19l.83-.863a.468.468,0,0,0,.11-.19.452.452,0,0,0,.009-.223l-.274-1.337a.444.444,0,0,1,.009-.221.46.46,0,0,1,.111-.192l.732-.746a.459.459,0,0,0-.119.413l.275,1.341a.464.464,0,0,1-.117.41l.829-.861a.44.44,0,0,0,.11-.192.446.446,0,0,0,.009-.222l-.133-.654a1.642,1.642,0,0,1,1.229-1.677.97.97,0,0,0,.113-.45c0-.75-.894-1.359-2-1.359a2.548,2.548,0,0,0-1.389.384c.145.427.175.86-1.24,1.063a5.436,5.436,0,0,0-2.859,1.013c-1.157.981-1.063,2.292-1.721,2.789a2.434,2.434,0,0,0,1.063-.015,2.949,2.949,0,0,0,.689-.239,1.556,1.556,0,0,1-.775.618,1.734,1.734,0,0,1-1.089,1.111,1.6,1.6,0,0,1-.988.06l-1.353-.392a1.881,1.881,0,0,0-.522-.073,1.981,1.981,0,0,0-1.943,1.763.969.969,0,0,0-.832.959.958.958,0,0,0,.134.491,2.648,2.648,0,0,1,1.2-.7,1.627,1.627,0,0,1,1.564-1.182m-7.2,12.348a5.79,5.79,0,0,0,.1-1.282l-.4.463a3.469,3.469,0,0,0-.183-.39c-.043-.075-.08-.127-.132-.136a.544.544,0,0,1-.11.045.834.834,0,0,1-.161.007.853.853,0,0,1-.162-.007.571.571,0,0,1-.108-.045c-.053.009-.089.061-.133.136a3.529,3.529,0,0,0-.182.39l-.4-.463a5.734,5.734,0,0,0,.1,1.282,4.5,4.5,0,0,1,1.761,0m.176,1.19c.045-.5-.525-.68-1.057-.68s-1.1.179-1.058.68c.055.612.626.32,1.058.323s1,.289,1.057-.323m1.519-3.613a.213.213,0,0,0-.173.2.972.972,0,0,1-.684.962,5.527,5.527,0,0,1-.249,1.6c.454.948.106,1.611-.262,1.754-.351.136-.8-.047-1.2-.047s-.861.183-1.211.047c-.369-.143-.716-.806-.264-1.754a5.526,5.526,0,0,1-.247-1.6.975.975,0,0,1-.686-.962.212.212,0,0,0-.172-.2,1.719,1.719,0,0,1-.888-2.816c-.067.839-.14,2.022,1.575,2.181-.028.984.4,1.248.837,1.248a1.276,1.276,0,0,0,.653-.163c.319-.169.1-.428.018-.5a.865.865,0,0,1-.278-.786c.009-.053.029-.08.078-.08h1.162c.049,0,.07.027.079.08a.871.871,0,0,1-.278.786c-.082.076-.3.335.017.5a1.278,1.278,0,0,0,.654.163c.438,0,.864-.264.837-1.248,1.715-.158,1.642-1.342,1.574-2.181a1.719,1.719,0,0,1-.888,2.816m.465-3.27c0,.432-.315.911-.674.911h-.328a.569.569,0,0,1,.132.365.576.576,0,1,1-1.152,0,.569.569,0,0,1,.132-.365h-.344a.3.3,0,0,0-.282.185,1.277,1.277,0,0,1-.005-.5.37.37,0,0,1,.328-.278h1.511a.842.842,0,0,0,.682-.313m-.2-.714h-.527a.747.747,0,0,1-.6-.285l-.6-.786a.814.814,0,0,0-.307-.271h.6a.57.57,0,0,1,.461.237l.628.8c.14.169.184.282.349.307m-2.754-1.3.77,1.083a.857.857,0,0,0,.4.345h-.706a.6.6,0,0,1-.553-.32l-.606-.929c-.232-.349-.323-.437-.589-.53h.655a.808.808,0,0,1,.626.352m-1.745.2.627.8c.14.169.184.282.349.307h-.527a.747.747,0,0,1-.6-.285l-.6-.786a.814.814,0,0,0-.307-.271h.6a.573.573,0,0,1,.462.237m-.38,2.729h-.33c-.357,0-.673-.479-.673-.911a.843.843,0,0,0,.682.313h1.512a.37.37,0,0,1,.328.278,1.315,1.315,0,0,1-.005.5.3.3,0,0,0-.282-.185h-.344a.568.568,0,0,1,.131.365.576.576,0,1,1-1.152,0,.559.559,0,0,1,.133-.365m-1.864,7.2.183-.358a.45.45,0,0,0,.049-.216.457.457,0,0,0-.057-.213l.5.9a.48.48,0,0,1,.057.214.459.459,0,0,1-.049.218l-.045.089a3.128,3.128,0,0,0-.277,2.369,1.336,1.336,0,0,1-.909-1.47c-1.4-1.328-1.752-2.672-.753-3.8l.513-.6a.433.433,0,0,0,.1-.2.444.444,0,0,0,0-.22l.267,1a.447.447,0,0,1,0,.221.459.459,0,0,1-.1.2l-.156.183c-.523.608-.383,1.434.436,2.173a4.224,4.224,0,0,1,.237-.491m34.324,3.741a1.157,1.157,0,0,0,.084-.434,1.134,1.134,0,0,0-1.132-1.136h-1.146a.467.467,0,0,1-.382-.2l-.574-.849a.448.448,0,0,0,.166.147.44.44,0,0,0,.215.053h1.51a.459.459,0,0,1,.216.054.444.444,0,0,1,.165.146l-.693-1.016a.464.464,0,0,0-.381-.2h-1.5a.482.482,0,0,1-.215-.053.442.442,0,0,1-.166-.148l-.652-.958a.447.447,0,0,0,.166.147.461.461,0,0,0,.216.053h1.5a.426.426,0,0,1,.216.053.436.436,0,0,1,.165.147l-.693-1.018a.474.474,0,0,0-.167-.146.456.456,0,0,0-.214-.054h-1.2a.447.447,0,0,1-.215-.054.453.453,0,0,1-.166-.146l-.8-1.18c1.624-.192,2.934-1.072,3.2-2.284.339-1.574-1.226-3.1-3.489-3.432a.787.787,0,0,1-.163-1.515,2.008,2.008,0,0,0-.8-.161,1.717,1.717,0,0,0-1.813,1.6,1.444,1.444,0,0,0,.077.46,8.291,8.291,0,0,0-2.926,2.271,10.216,10.216,0,0,1,2.621-.341c0-.042-.006-.085-.006-.128a1.227,1.227,0,0,1,1.228-1.229h.017a1.127,1.127,0,0,0-.688.942.635.635,0,0,0,1,.519.879.879,0,0,1,.843-1.132.9.9,0,0,1,.127.009.985.985,0,0,0,.417,1.877.876.876,0,0,0,.169-.015.693.693,0,0,1-.023-.178.706.706,0,1,1,1.412,0c0,.848-.943.926-1.629.729a13.334,13.334,0,0,0-5.56-.568c-2.274.318-6,1.856-9.951,1.728a12.218,12.218,0,0,1-2.82-.441,2.776,2.776,0,0,1,.247.3,1.98,1.98,0,0,1,.177,2.014,2.772,2.772,0,0,0-1.329-2.051c-.246-.179-.345-.35-.3-.578l.18-1.018a.465.465,0,0,0,.132.408l.38.372a3.946,3.946,0,0,0-.7-2.876,3.744,3.744,0,0,0,.127-2.226,1.2,1.2,0,0,1-.6.956.79.79,0,0,0-.312,1.148c-.405-.208-.966-.961-.642-1.4.35-.476,1.306-.251,1.424-1.066a2.752,2.752,0,0,0-1.454-.006,1.83,1.83,0,0,0-1.464-.627,3.435,3.435,0,0,0-3.7,0,1.83,1.83,0,0,0-1.464.627,2.76,2.76,0,0,0-1.456.006c.118.815,1.075.591,1.424,1.066.324.439-.235,1.192-.642,1.4a.789.789,0,0,0-.312-1.148,1.2,1.2,0,0,1-.6-.956,3.751,3.751,0,0,0,.127,2.226,3.937,3.937,0,0,0-.7,2.876l.381-.372a.457.457,0,0,0,.116-.188.45.45,0,0,0,.015-.22l.18,1.018c.041.229-.057.4-.3.578a2.765,2.765,0,0,0-1.33,2.051,1.986,1.986,0,0,1,.178-2.014,8.446,8.446,0,0,1-2.2-1.843,1.078,1.078,0,0,1,.013-1.383c.612-.877.758-1.81-.011-2.449a1.328,1.328,0,0,0,.008-.142,1.2,1.2,0,0,0-.962-1.175,1.02,1.02,0,0,1-.046,1.166.851.851,0,0,1,.173.515.842.842,0,0,1-.3.646,1.4,1.4,0,0,0,.027-.276,1.255,1.255,0,0,0-.872-1.236.936.936,0,0,0-1.594-.477.743.743,0,0,1,.679.658,1.247,1.247,0,0,0-.4.508h.023a1.109,1.109,0,0,1,1.109,1.109,1.141,1.141,0,0,1-.019.2,1.179,1.179,0,0,0-1.646-.895.938.938,0,0,0-1.529.086,1.068,1.068,0,0,1,.823.444,1.479,1.479,0,0,0,.006,1.948,1.2,1.2,0,0,0,1.257.248.271.271,0,0,1,.094-.016.3.3,0,1,1,0,.591.291.291,0,0,1-.188-.066.649.649,0,0,0-1.064.5.517.517,0,0,0,0,.078.6.6,0,0,1-.193.03.645.645,0,0,1-.45-.185.881.881,0,0,0-.028.221.869.869,0,0,0,.8.866,1.365,1.365,0,0,0,2.051.6.6.6,0,1,1,.474,1.069l-.464.1a.441.441,0,0,1-.223-.007.428.428,0,0,1-.192-.107l1.063,1.009a.458.458,0,0,0,.193.108.44.44,0,0,0,.223.007l.869-.193a.456.456,0,0,1,.221.007.428.428,0,0,1,.193.108l.729.693a.448.448,0,0,0-.193-.108.423.423,0,0,0-.221-.006l-.869.191a.432.432,0,0,1-.221-.007.451.451,0,0,1-.194-.106l.975.922a.456.456,0,0,0,.414.114l.871-.189a.437.437,0,0,1,.222.006.45.45,0,0,1,.193.109l.729.692a.473.473,0,0,0-.415-.115l-.868.192a.452.452,0,0,1-.223-.007.429.429,0,0,1-.193-.108l.974.925a.47.47,0,0,0,.416.114l1.052-.23q-1.533.867-3.262,1.96a2.412,2.412,0,0,1-2.283.183,2.607,2.607,0,0,0-1.275-.15,1.381,1.381,0,0,0-.961.665,1.35,1.35,0,0,1,.515-.1,1.389,1.389,0,0,1,.98.4,1.894,1.894,0,0,0-1.374-.009,1.635,1.635,0,0,0-1.166,1.85.855.855,0,0,0-.29,1.409.877.877,0,0,1,.822-.684,1.593,1.593,0,0,0,.574.232,1.242,1.242,0,0,1,.237-.293,1.6,1.6,0,0,1-.014-.21,1.42,1.42,0,0,1,1.42-1.421,1.388,1.388,0,0,1,.192.013,1.421,1.421,0,0,0-1.088,1.382,1.458,1.458,0,0,0,.022.248.9.9,0,0,0-.364,1.41,1.593,1.593,0,0,1,1.263-.858,2.3,2.3,0,0,0,.655.095,2.427,2.427,0,0,0,.415-.037,1.106,1.106,0,0,1,.912-1.73.915.915,0,0,1,.156.013,1.136,1.136,0,0,0-.817,1.215.941.941,0,0,0,.794.629,1.42,1.42,0,0,1-.188.676,1.423,1.423,0,0,0,1.168-.783,1.15,1.15,0,0,0,.851-1.229.777.777,0,0,0-.291-.418c0-.017,0-.032,0-.048a.586.586,0,0,1,1.173,0,.577.577,0,0,1-.155.4h1.227a.463.463,0,0,0,.38-.2l.787-1.167a.307.307,0,0,1,.113-.1.3.3,0,0,1,.146-.037h.964a.3.3,0,0,0-.147.037.314.314,0,0,0-.113.1l-.79,1.167a.432.432,0,0,1-.165.148.439.439,0,0,1-.214.054h1.466a.463.463,0,0,0,.38-.2l.884-1.3a1.767,1.767,0,0,1-.86-1.719,10.259,10.259,0,0,1,.322-1.435l.018-.146a.463.463,0,0,0-.028-.221.724.724,0,0,0-.11-.188l.754.773a.427.427,0,0,1,.127.181.44.44,0,0,1,.03.22l-.023.177c-.036.308-.422.97.3,1.575a2.5,2.5,0,0,0,.209.147l.51.319v-1.88h.713v2.093a.468.468,0,0,0,.212.375l.7.442a.463.463,0,0,0,.211.07.449.449,0,0,0,.218-.037l1.285-.557a.462.462,0,0,1-.218.035.453.453,0,0,1-.211-.069l-1.475-.939c.717-.605.329-1.268.293-1.575l-.021-.177a.459.459,0,0,1,.155-.4l.754-.773a.715.715,0,0,0-.108.188.452.452,0,0,0-.028.221l.016.146c.061.522.59,1.471.15,2l1.348.856a.46.46,0,0,0,.21.068.433.433,0,0,0,.22-.035l1.343-.583a.455.455,0,0,1-.217.034.461.461,0,0,1-.211-.069l-1.459-.927a2.916,2.916,0,0,0-.258-2.283l-.046-.089a.456.456,0,0,1-.048-.218.443.443,0,0,1,.057-.214l.5-.9a.476.476,0,0,0-.008.429l.184.358a4.072,4.072,0,0,1,.236.491c.82-.739,1-1.454.48-2.062l-.156-.184a.456.456,0,0,1-.1-.2.44.44,0,0,1,0-.222l.267-1a.459.459,0,0,0,0,.221.441.441,0,0,0,.1.2l.513.6c1,1.128.4,2.581-.8,3.688a2.039,2.039,0,0,1,.075.827l1.582,1a.463.463,0,0,0,.43.034l1.143-.5a.533.533,0,1,1-.373-1c4.366-1.328,8.385-4.756,11.024-4.748,1.282,0,2.322.781,2.322,1.743a1.37,1.37,0,0,1-.078.45c-.562,1.58.257,3.089,2.421,3.67a.812.812,0,0,1,.6.782.854.854,0,0,1-.028.21c.049,0,.1.007.151.007a1.762,1.762,0,0,0,1.441-.749c.372,0,.777-.025,1.192-.069a1.3,1.3,0,0,1,.114.34c.089.454-.069.865-.348.955a5.243,5.243,0,0,1-1.575-.026,1.623,1.623,0,0,0-1.608,1.622,1.43,1.43,0,0,0,.014.207.984.984,0,0,0-.338,1.319,2.433,2.433,0,0,1,1.036-.709,1.469,1.469,0,0,1,1.467-1.4,1.424,1.424,0,0,1,.35.043,1.622,1.622,0,0,0-1.418,1.609c0,.061,0,.119.01.18a.685.685,0,0,0-.158.439.7.7,0,0,0,.244.531,1.661,1.661,0,0,1,.986-.8,1.74,1.74,0,0,1,.887-.074,1.261,1.261,0,0,1-.062-.4,1.277,1.277,0,0,1,1.277-1.276,1.387,1.387,0,0,1,.192.015,1.008,1.008,0,0,0-.449,1.818c0,.019,0,.037,0,.056a.885.885,0,0,0,.327.688,1,1,0,0,1,.984-.813,3.34,3.34,0,0,0,1.022-.138,1.086,1.086,0,0,0,.756-1.029,1.075,1.075,0,0,0-.392-.831,5.406,5.406,0,0,0-.088-2.175.9.9,0,0,1,.116-.008.873.873,0,0,1,.729.395m16.591-70.428h-1.5v90.031h1.5Z" fill="#006eb8"/>
    <path id="Path_6" data-name="Path 6" d="M1521.982,8256.039h-2.1v9.583h1.662V8259.3l.049-.008,2.065,6.334h1.127l2.057-6.293.049.008v6.285h1.67v-9.583h-2.09l-2.23,7.534h-.049Zm-6.145,0v6.271a2.357,2.357,0,0,1-.505,1.609,1.936,1.936,0,0,1-2.752,0,2.343,2.343,0,0,1-.511-1.609v-6.271h-1.66v6.284a3.277,3.277,0,0,0,.978,2.529,4.077,4.077,0,0,0,5.133,0,3.281,3.281,0,0,0,.979-2.529v-6.284Zm-7.806,0h-1.663v9.583h1.663Zm-9.08,1.267h1.538a1.332,1.332,0,0,1,1.086.436,1.785,1.785,0,0,1,.361,1.176,1.685,1.685,0,0,1-.357,1.152,1.389,1.389,0,0,1-1.09.4h-1.538Zm1.678,4.434a1.25,1.25,0,0,1,1.011.419,1.78,1.78,0,0,1,.355,1.177v.864q0,.428.019.839a1.649,1.649,0,0,0,.1.584h1.719v-.141a1.324,1.324,0,0,1-.145-.542c-.023-.246-.037-.491-.037-.732v-.88a2.826,2.826,0,0,0-.345-1.452,1.869,1.869,0,0,0-1.118-.827,2.434,2.434,0,0,0,1.052-.88,2.38,2.38,0,0,0,.362-1.325,2.624,2.624,0,0,0-.827-2.063,3.306,3.306,0,0,0-2.29-.74h-3.2v9.583h1.662v-3.883Zm-6.211-1.735h-3.529v-2.7h4.13v-1.267h-5.791v9.583h5.791v-1.267h-4.13v-3.086h3.529Zm-8.061,0h-3.529v-2.7h4.13v-1.267h-5.791v9.583h5.791v-1.267h-4.13v-3.086h3.529Zm-6.786-3.965h-6.564v1.267h2.426v8.316h1.662v-8.316h2.476Zm-9.469,8.07a1.775,1.775,0,0,1-1.241.385,1.912,1.912,0,0,1-1.255-.4,1.594,1.594,0,0,1-.489-1.307h-1.6l-.025.049a2.51,2.51,0,0,0,.9,2.2,3.929,3.929,0,0,0,2.468.725,3.8,3.8,0,0,0,2.422-.711,2.636,2.636,0,0,0,.185-3.791,5.8,5.8,0,0,0-2.221-1.073,3.945,3.945,0,0,1-1.477-.688,1.268,1.268,0,0,1-.357-.956,1.376,1.376,0,0,1,.365-.981,1.481,1.481,0,0,1,1.124-.388,1.382,1.382,0,0,1,1.13.463,1.862,1.862,0,0,1,.383,1.226h1.6l.017-.05a2.673,2.673,0,0,0-.8-2.136,3.3,3.3,0,0,0-2.324-.769,3.408,3.408,0,0,0-2.3.731,2.407,2.407,0,0,0-.851,1.922,2.3,2.3,0,0,0,.712,1.841,5.974,5.974,0,0,0,2.273,1.052,3.876,3.876,0,0,1,1.4.7,1.258,1.258,0,0,1,.383.955,1.3,1.3,0,0,1-.42,1m-6.7-8.07h-1.662v9.583h1.662Zm-4.532,0h-1.669v6.613l-.05.017-3.677-6.63h-1.662v9.583h1.662V8259l.049-.015,3.678,6.638h1.669Zm-9.542,0h-1.662v9.583h1.662Zm-10.759,0h-2.1v9.583h1.662V8259.3l.049-.008,2.065,6.334h1.127l2.057-6.293.049.008v6.285h1.67v-9.583h-2.09l-2.228,7.534h-.05Zm-6.252,8.07a1.775,1.775,0,0,1-1.241.385,1.912,1.912,0,0,1-1.255-.4,1.594,1.594,0,0,1-.489-1.307h-1.6l-.024.049a2.509,2.509,0,0,0,.9,2.2,3.927,3.927,0,0,0,2.468.725,3.8,3.8,0,0,0,2.422-.711,2.636,2.636,0,0,0,.185-3.791,5.8,5.8,0,0,0-2.221-1.073,3.952,3.952,0,0,1-1.477-.688,1.268,1.268,0,0,1-.357-.956,1.376,1.376,0,0,1,.365-.981,1.484,1.484,0,0,1,1.124-.388,1.386,1.386,0,0,1,1.131.463,1.868,1.868,0,0,1,.383,1.226h1.6l.016-.05a2.674,2.674,0,0,0-.8-2.136,3.3,3.3,0,0,0-2.324-.769,3.4,3.4,0,0,0-2.3.731,2.408,2.408,0,0,0-.852,1.922,2.3,2.3,0,0,0,.712,1.841,5.972,5.972,0,0,0,2.275,1.052,3.873,3.873,0,0,1,1.4.7,1.258,1.258,0,0,1,.383.955,1.293,1.293,0,0,1-.42,1m-5.807-8.07h-6.564v1.267h2.427v8.316h1.661v-8.316h2.476Zm-8.472,0h-1.662v9.583h1.662Zm-4.145,0h-1.662v9.583h1.662Zm-3.6,0h-6.564v1.267h2.427v8.316h1.663v-8.316h2.474Zm-9.805,8.07a1.775,1.775,0,0,1-1.241.385,1.912,1.912,0,0,1-1.255-.4,1.6,1.6,0,0,1-.489-1.307h-1.6l-.025.049a2.51,2.51,0,0,0,.9,2.2,3.929,3.929,0,0,0,2.468.725,3.8,3.8,0,0,0,2.422-.711,2.636,2.636,0,0,0,.185-3.791,5.781,5.781,0,0,0-2.221-1.073,3.945,3.945,0,0,1-1.477-.688,1.268,1.268,0,0,1-.357-.956,1.376,1.376,0,0,1,.365-.981,1.481,1.481,0,0,1,1.124-.388,1.382,1.382,0,0,1,1.13.463,1.857,1.857,0,0,1,.383,1.226h1.6l.017-.05a2.673,2.673,0,0,0-.8-2.136,3.3,3.3,0,0,0-2.324-.769,3.408,3.408,0,0,0-2.3.731,2.407,2.407,0,0,0-.851,1.922,2.3,2.3,0,0,0,.712,1.841,5.973,5.973,0,0,0,2.274,1.052,3.87,3.87,0,0,1,1.4.7,1.258,1.258,0,0,1,.383.955,1.293,1.293,0,0,1-.42,1m-8.258-8.07v6.271a2.362,2.362,0,0,1-.505,1.609,1.937,1.937,0,0,1-2.753,0,2.343,2.343,0,0,1-.509-1.609v-6.271h-1.662v6.284a3.278,3.278,0,0,0,.979,2.529,4.077,4.077,0,0,0,5.133,0,3.277,3.277,0,0,0,.978-2.529v-6.284Zm-9.492,6.152a2.914,2.914,0,0,1-.445,1.7,1.319,1.319,0,0,1-1.118.633,1.452,1.452,0,0,1-1.206-.562,2.744,2.744,0,0,1-.439-1.7h-1.6l-.025.05a3.391,3.391,0,0,0,.86,2.595,3.275,3.275,0,0,0,2.414.885,3.028,3.028,0,0,0,2.32-.975,3.713,3.713,0,0,0,.905-2.629v-8.547h-1.662Z" fill="#181716"/>
  </g>
</svg>
