<svg xmlns="http://www.w3.org/2000/svg" width="171.665" height="68.031" viewBox="0 0 171.665 68.031">
  <g id="Group_6" data-name="Group 6" transform="translate(-1357.917 -70.864)">
    <path id="Path_3" data-name="Path 3" d="M1372.8,126.311a.732.732,0,0,0,.1.371,2,2,0,0,1,.9-.528,1.228,1.228,0,0,1,1.182-.893,1.089,1.089,0,0,1,.141.008,1.565,1.565,0,0,0-1.021.934.731.731,0,0,0-.377,1.1,1.987,1.987,0,0,1,.962-.6,1.278,1.278,0,0,1,1.117-1.019,1.352,1.352,0,0,0-.709,1.8.733.733,0,0,1,.7-.536.71.71,0,0,1,.241.041.981.981,0,0,0,1.313-.923,1,1,0,0,0-.049-.31.619.619,0,0,1,.339.942,1.245,1.245,0,0,0,1.458-1.077,2.852,2.852,0,0,0,.843-.7l.17.829a.336.336,0,0,1-.007.167.34.34,0,0,1-.084.145l.7-.722a.326.326,0,0,0,.083-.145.34.34,0,0,0,.007-.168l-.207-1.011a.35.35,0,0,1,.091-.312l.553-.564a.34.34,0,0,0-.084.145.35.35,0,0,0-.006.167l.207,1.013a.352.352,0,0,1-.006.168.344.344,0,0,1-.082.143l.627-.652a.346.346,0,0,0,.083-.145.336.336,0,0,0,.007-.167l-.207-1.01a.336.336,0,0,1,.007-.167.341.341,0,0,1,.084-.145l.553-.564a.338.338,0,0,0-.084.145.348.348,0,0,0-.006.167l.208,1.013a.35.35,0,0,1-.089.31l.627-.651a.344.344,0,0,0,.083-.145.34.34,0,0,0,.007-.168l-.1-.494a1.241,1.241,0,0,1,.929-1.267.736.736,0,0,0,.085-.34c0-.567-.675-1.027-1.509-1.027a1.926,1.926,0,0,0-1.049.289c.109.323.132.651-.937.8a4.109,4.109,0,0,0-2.161.766c-.874.741-.8,1.732-1.3,2.107a1.835,1.835,0,0,0,.8-.011,2.193,2.193,0,0,0,.521-.182,1.169,1.169,0,0,1-.586.468,1.311,1.311,0,0,1-.823.84,1.205,1.205,0,0,1-.746.045l-1.023-.3a1.427,1.427,0,0,0-.394-.055,1.5,1.5,0,0,0-1.468,1.332.732.732,0,0,0-.629.725m10.114-40.458a7.677,7.677,0,0,1,2.019-1.42,1.1,1.1,0,0,1-.034-.269v-.006c-3.126.514-5.939,2.118-8.479,2.105-.712,0-1.27-.276-1.36-.727a.674.674,0,0,1,0-.272.39.39,0,1,1,.667.349c.073.007.148.011.226.011a2.184,2.184,0,0,0,.56-.07.645.645,0,0,0-.168-1.267l-.058,0a.75.75,0,0,1,1.042.69c0,.022,0,.043,0,.064a4.259,4.259,0,0,0,2.649-1.431,5.063,5.063,0,0,1-1.125.124,4.959,4.959,0,0,1-1.266-.158,6.233,6.233,0,0,0-1.5-.226,2.277,2.277,0,0,0-2.479,2,2.085,2.085,0,0,0,1.794,1.918c2.371.485,5.16-.924,7.516-1.412M1369.546,89.1a4.385,4.385,0,0,0,.076-.97l-.3.35a2.74,2.74,0,0,0-.138-.294c-.033-.057-.061-.1-.1-.1a.309.309,0,0,1-.083.034,1.241,1.241,0,0,1-.244,0,.315.315,0,0,1-.082-.034c-.04.007-.067.046-.1.1a2.712,2.712,0,0,0-.138.294l-.3-.35a4.395,4.395,0,0,0,.077.97,3.388,3.388,0,0,1,1.331,0m.133.9c.034-.379-.4-.514-.8-.514s-.832.135-.8.514c.041.462.473.242.8.244s.758.218.8-.244m1.148-2.729a.159.159,0,0,0-.131.15.735.735,0,0,1-.517.727,4.165,4.165,0,0,1-.188,1.212c.343.717.08,1.218-.2,1.326s-.607-.036-.91-.036-.65.138-.915.036-.541-.609-.2-1.326a4.164,4.164,0,0,1-.187-1.212.736.736,0,0,1-.518-.727.159.159,0,0,0-.13-.15,1.3,1.3,0,0,1-.671-2.13c-.051.634-.106,1.529,1.19,1.648-.021.744.3.943.632.943a.96.96,0,0,0,.494-.122c.241-.128.075-.324.013-.382a.654.654,0,0,1-.21-.594c.007-.039.022-.06.059-.06h.878c.037,0,.053.021.06.06a.658.658,0,0,1-.21.594c-.062.058-.228.254.013.382a.957.957,0,0,0,.494.122c.331,0,.653-.2.632-.943,1.3-.119,1.241-1.014,1.19-1.648a1.3,1.3,0,0,1-.671,2.13m.351-2.471c0,.325-.238.687-.509.687h-.248a.435.435,0,1,1-.671,0h-.26a.225.225,0,0,0-.213.141.98.98,0,0,1,0-.381.279.279,0,0,1,.248-.21h1.142a.639.639,0,0,0,.515-.237m-.151-.541h-.4a.562.562,0,0,1-.452-.215l-.455-.594a.6.6,0,0,0-.232-.2h.45a.431.431,0,0,1,.349.178l.474.6c.106.128.139.214.264.231m-2.081-.981.582.818a.645.645,0,0,0,.3.26h-.533a.453.453,0,0,1-.418-.242l-.458-.7c-.175-.263-.244-.328-.445-.4h.495a.61.61,0,0,1,.473.266m-1.319.147.474.6c.106.128.139.214.264.231h-.4a.562.562,0,0,1-.452-.215l-.455-.594a.6.6,0,0,0-.232-.2h.45a.431.431,0,0,1,.349.178m-.287,2.062h-.249c-.27,0-.509-.362-.509-.687a.641.641,0,0,0,.516.237h1.142a.279.279,0,0,1,.248.21.98.98,0,0,1,0,.381.225.225,0,0,0-.213-.141h-.26a.435.435,0,1,1-.771.277.429.429,0,0,1,.1-.277m-1.408,5.442.138-.271a.337.337,0,0,0,.037-.163.343.343,0,0,0-.043-.16l.379.682a.35.35,0,0,1,.043.161.33.33,0,0,1-.037.164l-.034.067a2.366,2.366,0,0,0-.209,1.79,1.009,1.009,0,0,1-.687-1.11c-1.057-1-1.324-2.019-.569-2.871l.388-.453a.325.325,0,0,0,.075-.149.333.333,0,0,0,0-.166l.2.753a.341.341,0,0,1,0,.168.345.345,0,0,1-.075.149l-.118.138c-.4.46-.289,1.083.33,1.642a3.047,3.047,0,0,1,.179-.371m25.936,2.827a.871.871,0,0,0,.064-.328.857.857,0,0,0-.856-.858h-.866a.333.333,0,0,1-.163-.04.348.348,0,0,1-.125-.111l-.434-.641a.348.348,0,0,0,.288.151h1.141a.348.348,0,0,1,.288.151l-.524-.767a.335.335,0,0,0-.126-.111.342.342,0,0,0-.162-.041h-1.132a.341.341,0,0,1-.162-.04.352.352,0,0,1-.126-.111l-.492-.725a.34.34,0,0,0,.125.111.346.346,0,0,0,.163.041h1.136a.348.348,0,0,1,.288.151l-.524-.768a.352.352,0,0,0-.288-.151h-.9a.357.357,0,0,1-.163-.04.352.352,0,0,1-.125-.112l-.607-.89A2.609,2.609,0,0,0,1390,86.9c.256-1.188-.926-2.341-2.636-2.592a.594.594,0,0,1-.123-1.144,1.51,1.51,0,0,0-.6-.123,1.3,1.3,0,0,0-1.37,1.211,1.089,1.089,0,0,0,.058.347,6.262,6.262,0,0,0-2.211,1.716,7.7,7.7,0,0,1,1.981-.258c0-.032-.005-.064-.005-.1a.928.928,0,0,1,.928-.928h.013a.852.852,0,0,0-.52.712.479.479,0,0,0,.756.392.664.664,0,0,1,.637-.855.612.612,0,0,1,.1.007.744.744,0,0,0,.315,1.418.772.772,0,0,0,.128-.01.514.514,0,0,1-.018-.136.534.534,0,0,1,1.067,0c0,.641-.712.7-1.231.551a10.061,10.061,0,0,0-4.2-.429c-1.718.241-4.532,1.4-7.519,1.305a9.27,9.27,0,0,1-2.131-.333,1.979,1.979,0,0,1,.186.225,1.5,1.5,0,0,1,.134,1.522,2.094,2.094,0,0,0-1-1.55c-.186-.135-.261-.264-.23-.437l.136-.768a.344.344,0,0,0,.012.166.35.35,0,0,0,.088.142l.287.281a2.98,2.98,0,0,0-.53-2.173,2.827,2.827,0,0,0,.1-1.682.906.906,0,0,1-.455.722.6.6,0,0,0-.236.868c-.306-.156-.73-.725-.485-1.058.264-.359.987-.19,1.076-.806a2.078,2.078,0,0,0-1.1,0,1.382,1.382,0,0,0-1.106-.474,2.6,2.6,0,0,0-2.8,0,1.382,1.382,0,0,0-1.106.474,2.082,2.082,0,0,0-1.1,0c.089.616.812.447,1.076.806.245.333-.178.9-.485,1.058a.6.6,0,0,0-.236-.868.908.908,0,0,1-.455-.722,2.834,2.834,0,0,0,.1,1.682,2.98,2.98,0,0,0-.53,2.173l.288-.281a.35.35,0,0,0,.088-.142.344.344,0,0,0,.011-.166l.136.768c.031.173-.043.3-.229.437a2.092,2.092,0,0,0-1.005,1.55,1.5,1.5,0,0,1,.135-1.522,6.406,6.406,0,0,1-1.666-1.392.816.816,0,0,1,.01-1.045c.463-.662.573-1.368-.008-1.851a.939.939,0,0,0,.006-.107.9.9,0,0,0-.727-.887.769.769,0,0,1-.035.881.639.639,0,0,1-.1.876,1.028,1.028,0,0,0,.021-.209.948.948,0,0,0-.659-.934.707.707,0,0,0-1.2-.36.561.561,0,0,1,.513.5.95.95,0,0,0-.3.384h.017a.838.838,0,0,1,.838.838.882.882,0,0,1-.014.154.892.892,0,0,0-1.244-.676.708.708,0,0,0-1.155.065.809.809,0,0,1,.622.335,1.118,1.118,0,0,0,0,1.473.911.911,0,0,0,.95.187.235.235,0,0,1,.071-.011.223.223,0,1,1,0,.446.22.22,0,0,1-.142-.051.491.491,0,0,0-.8.377.417.417,0,0,0,0,.061.5.5,0,0,1-.146.022.486.486,0,0,1-.34-.14.658.658,0,0,0,.584.821,1.032,1.032,0,0,0,1.55.456.451.451,0,1,1,.358.809l-.351.077a.34.34,0,0,1-.168,0,.333.333,0,0,1-.145-.081l.8.762a.345.345,0,0,0,.146.082.34.34,0,0,0,.168.005l.657-.146a.351.351,0,0,1,.313.087l.551.524a.345.345,0,0,0-.146-.082.336.336,0,0,0-.167,0l-.657.145a.354.354,0,0,1-.313-.086l.736.7a.351.351,0,0,0,.145.082.341.341,0,0,0,.168,0l.658-.144a.352.352,0,0,1,.168.005.344.344,0,0,1,.146.082l.551.524a.351.351,0,0,0-.314-.087l-.656.145a.34.34,0,0,1-.168-.005.333.333,0,0,1-.146-.082l.736.7a.334.334,0,0,0,.146.082.34.34,0,0,0,.168.005L1365,92q-1.158.654-2.465,1.481a1.823,1.823,0,0,1-1.725.138,1.97,1.97,0,0,0-.963-.114,1.046,1.046,0,0,0-.726.5,1.049,1.049,0,0,1,1.129.23,1.431,1.431,0,0,0-1.038-.006,1.235,1.235,0,0,0-.881,1.4.646.646,0,0,0-.219,1.064.661.661,0,0,1,.621-.516,1.223,1.223,0,0,0,.434.175.934.934,0,0,1,.179-.221,1.2,1.2,0,0,1-.011-.159,1.073,1.073,0,0,1,1.073-1.074.989.989,0,0,1,.145.01,1.074,1.074,0,0,0-.822,1.044,1.061,1.061,0,0,0,.017.188.676.676,0,0,0-.275,1.065,1.2,1.2,0,0,1,.954-.648,1.757,1.757,0,0,0,.495.071,1.805,1.805,0,0,0,.314-.028.834.834,0,0,1,.689-1.306.771.771,0,0,1,.118.008.859.859,0,0,0-.618.919.715.715,0,0,0,.6.475,1.065,1.065,0,0,1-.142.51,1.074,1.074,0,0,0,.883-.592.869.869,0,0,0,.643-.929.581.581,0,0,0-.22-.315c0-.012,0-.025,0-.037a.443.443,0,1,1,.769.3h.927a.342.342,0,0,0,.162-.041.333.333,0,0,0,.125-.112l.6-.882a.238.238,0,0,1,.085-.076.243.243,0,0,1,.111-.028h.728a.243.243,0,0,0-.111.028.238.238,0,0,0-.085.076l-.6.882a.334.334,0,0,1-.125.112.339.339,0,0,1-.162.041h1.108a.339.339,0,0,0,.162-.041.328.328,0,0,0,.125-.112l.668-.985a1.336,1.336,0,0,1-.65-1.3,7.722,7.722,0,0,1,.244-1.084l.013-.11a.341.341,0,0,0-.021-.166.539.539,0,0,0-.083-.143l.57.584a.353.353,0,0,1,.118.3l-.017.134c-.027.232-.319.732.223,1.19a1.649,1.649,0,0,0,.158.111l.385.242V92.84h.539v1.581a.345.345,0,0,0,.16.283l.527.335a.341.341,0,0,0,.159.053.351.351,0,0,0,.165-.027l.971-.422a.33.33,0,0,1-.165.027.344.344,0,0,1-.159-.052l-1.115-.71c.542-.458.249-.958.222-1.19l-.016-.134a.341.341,0,0,1,.021-.166.348.348,0,0,1,.1-.137l.57-.584a.535.535,0,0,0-.082.143.341.341,0,0,0-.021.166l.012.11c.046.4.446,1.111.113,1.51l1.019.647a.354.354,0,0,0,.159.053.345.345,0,0,0,.166-.028l1.015-.441a.351.351,0,0,1-.164.027.342.342,0,0,1-.16-.053l-1.1-.7a2.206,2.206,0,0,0-.2-1.725l-.035-.067a.34.34,0,0,1-.036-.164.326.326,0,0,1,.043-.161l.378-.682a.329.329,0,0,0-.042.16.336.336,0,0,0,.036.163l.139.271a3.047,3.047,0,0,1,.178.371c.62-.559.758-1.1.363-1.557l-.118-.139a.345.345,0,0,1-.075-.149.329.329,0,0,1,0-.168l.2-.753a.347.347,0,0,0,.073.316l.388.452c.754.852.3,1.95-.6,2.787a1.545,1.545,0,0,1,.057.625l1.2.758a.351.351,0,0,0,.325.026l.864-.376a.409.409,0,0,1-.16.033.4.4,0,0,1-.122-.786c3.3-1,6.336-3.594,8.33-3.587.969,0,1.755.589,1.755,1.316a1.031,1.031,0,0,1-.059.34c-.425,1.194.194,2.334,1.829,2.774a.612.612,0,0,1,.452.59.638.638,0,0,1-.021.159,1.063,1.063,0,0,0,.114,0,1.328,1.328,0,0,0,1.089-.566c.281,0,.587-.019.9-.052a1,1,0,0,1,.086.257c.067.344-.052.654-.263.722a4.013,4.013,0,0,1-1.19-.02,1.226,1.226,0,0,0-1.215,1.226,1.174,1.174,0,0,0,.01.156.743.743,0,0,0-.255,1,1.837,1.837,0,0,1,.783-.536,1.11,1.11,0,0,1,1.373-1.028,1.221,1.221,0,0,0-1.064,1.352.522.522,0,0,0-.12.334.528.528,0,0,0,.185.4,1.255,1.255,0,0,1,.745-.605,1.316,1.316,0,0,1,.67-.056.947.947,0,0,1-.047-.3.965.965,0,0,1,.965-.966.991.991,0,0,1,.145.011.762.762,0,0,0-.339,1.375v.041a.666.666,0,0,0,.247.519.757.757,0,0,1,.744-.614,2.528,2.528,0,0,0,.772-.1.821.821,0,0,0,.571-.778.811.811,0,0,0-.3-.628,4.084,4.084,0,0,0-.066-1.643.616.616,0,0,1,.087-.006.66.66,0,0,1,.551.3m-16.809,6.949a.674.674,0,0,1,0-.272.39.39,0,1,1,.667.349c.073.007.148.011.226.011a2.184,2.184,0,0,0,.56-.07.645.645,0,0,0-.168-1.267l-.058,0a.75.75,0,0,1,1.042.69c0,.021,0,.043,0,.064a4.259,4.259,0,0,0,2.649-1.431,5.063,5.063,0,0,1-1.125.124,4.959,4.959,0,0,1-1.266-.158,6.233,6.233,0,0,0-1.5-.226,2.277,2.277,0,0,0-2.479,2,2.085,2.085,0,0,0,1.794,1.918c2.371.485,5.16-.924,7.516-1.412a7.677,7.677,0,0,1,2.019-1.42,1.1,1.1,0,0,1-.034-.269v-.006c-3.126.514-5.939,2.118-8.479,2.105-.712,0-1.27-.276-1.36-.727m-.073-5.77a1.3,1.3,0,0,1,.141.008,1.565,1.565,0,0,0-1.021.934.731.731,0,0,0-.377,1.1,1.994,1.994,0,0,1,.962-.6,1.278,1.278,0,0,1,1.117-1.019,1.352,1.352,0,0,0-.709,1.8.733.733,0,0,1,.7-.536.71.71,0,0,1,.241.041.978.978,0,0,0,1.313-.923.986.986,0,0,0-.049-.309.619.619,0,0,1,.339.942,1.25,1.25,0,0,0,1.458-1.078,2.852,2.852,0,0,0,.843-.7l.17.829a.34.34,0,0,1-.007.168.352.352,0,0,1-.084.145l.7-.723a.326.326,0,0,0,.083-.145.337.337,0,0,0,.007-.167l-.207-1.012a.35.35,0,0,1,.091-.312l.553-.564a.346.346,0,0,0-.09.313l.207,1.013a.348.348,0,0,1-.006.167.344.344,0,0,1-.082.143l.627-.652a.346.346,0,0,0,.083-.145.336.336,0,0,0,.007-.167l-.207-1.01a.336.336,0,0,1,.007-.167.341.341,0,0,1,.084-.145l.553-.564a.338.338,0,0,0-.084.145.348.348,0,0,0-.006.167l.208,1.013a.35.35,0,0,1-.089.31l.627-.651a.354.354,0,0,0,.09-.313l-.1-.494a1.241,1.241,0,0,1,.929-1.267.736.736,0,0,0,.085-.34c0-.567-.675-1.027-1.509-1.027a1.926,1.926,0,0,0-1.049.289c.109.323.132.651-.937.8a4.117,4.117,0,0,0-2.161.766c-.874.741-.8,1.732-1.3,2.107a1.835,1.835,0,0,0,.8-.011,2.237,2.237,0,0,0,.521-.181,1.173,1.173,0,0,1-.586.467,1.311,1.311,0,0,1-.823.84,1.205,1.205,0,0,1-.746.045l-1.023-.3a1.427,1.427,0,0,0-.394-.055,1.5,1.5,0,0,0-1.468,1.332.732.732,0,0,0-.528,1.1,2,2,0,0,1,.9-.528,1.23,1.23,0,0,1,1.182-.893m-5.44,9.331a4.385,4.385,0,0,0,.076-.97l-.3.35a2.74,2.74,0,0,0-.138-.294c-.033-.057-.061-.1-.1-.1a.309.309,0,0,1-.083.034,1.241,1.241,0,0,1-.244,0,.315.315,0,0,1-.082-.034c-.04.007-.067.046-.1.1a2.712,2.712,0,0,0-.138.294l-.3-.35a4.395,4.395,0,0,0,.077.97,3.388,3.388,0,0,1,1.331,0m.133.9c.034-.379-.4-.514-.8-.514s-.832.135-.8.514c.041.462.473.242.8.244s.758.218.8-.244m1.148-2.729a.159.159,0,0,0-.131.15.735.735,0,0,1-.517.727,4.165,4.165,0,0,1-.188,1.212c.343.717.08,1.218-.2,1.325s-.607-.035-.91-.035-.65.138-.915.035-.541-.608-.2-1.325a4.164,4.164,0,0,1-.187-1.212.736.736,0,0,1-.518-.727.159.159,0,0,0-.13-.15,1.3,1.3,0,0,1-.671-2.13c-.051.634-.106,1.529,1.19,1.648-.021.744.3.943.632.943a.96.96,0,0,0,.494-.122c.241-.128.075-.324.013-.382a.654.654,0,0,1-.21-.594c.007-.04.022-.06.059-.06h.878c.037,0,.053.02.06.06a.659.659,0,0,1-.21.594c-.062.058-.228.254.013.382a.957.957,0,0,0,.494.122c.331,0,.653-.2.632-.943,1.3-.119,1.241-1.014,1.19-1.648a1.3,1.3,0,0,1-.671,2.13m.351-2.471c0,.325-.238.687-.509.687h-.248a.435.435,0,1,1-.671,0h-.26a.225.225,0,0,0-.213.141.985.985,0,0,1,0-.382.28.28,0,0,1,.248-.21h1.142a.638.638,0,0,0,.515-.236m-.151-.541h-.4a.562.562,0,0,1-.452-.215l-.455-.594a.6.6,0,0,0-.232-.2h.45a.431.431,0,0,1,.349.178l.474.6c.106.128.139.214.264.231m-2.081-.981.582.818a.645.645,0,0,0,.3.26h-.533a.453.453,0,0,1-.418-.242l-.458-.7c-.175-.263-.244-.328-.445-.4h.495a.61.61,0,0,1,.473.266m-1.319.147.474.6c.106.128.139.214.264.231h-.4a.562.562,0,0,1-.452-.215l-.455-.594a.6.6,0,0,0-.232-.2h.45a.431.431,0,0,1,.349.178m-.287,2.062h-.249c-.27,0-.509-.362-.509-.687a.64.64,0,0,0,.516.236h1.142a.28.28,0,0,1,.248.21.985.985,0,0,1,0,.382.225.225,0,0,0-.213-.141h-.26a.435.435,0,1,1-.771.277.427.427,0,0,1,.1-.277m-1.408,5.442.138-.271a.337.337,0,0,0,.037-.163.343.343,0,0,0-.043-.16l.379.682a.347.347,0,0,1,.043.161.33.33,0,0,1-.037.164l-.034.067a2.366,2.366,0,0,0-.209,1.79,1.008,1.008,0,0,1-.687-1.109c-1.057-1-1.324-2.02-.569-2.872l.388-.453a.325.325,0,0,0,.075-.149.333.333,0,0,0,0-.166l.2.753a.341.341,0,0,1,0,.168.345.345,0,0,1-.075.149l-.118.138c-.4.46-.289,1.083.33,1.642a3.047,3.047,0,0,1,.179-.371m25.936,2.827a.871.871,0,0,0,.064-.328.857.857,0,0,0-.856-.858h-.866a.333.333,0,0,1-.163-.04.348.348,0,0,1-.125-.111l-.434-.641a.339.339,0,0,0,.125.111.331.331,0,0,0,.163.04h1.141a.348.348,0,0,1,.288.151l-.524-.767a.335.335,0,0,0-.126-.111.342.342,0,0,0-.162-.041h-1.132a.352.352,0,0,1-.288-.151l-.492-.725a.34.34,0,0,0,.125.111.346.346,0,0,0,.163.041h1.136a.342.342,0,0,1,.163.04.331.331,0,0,1,.125.111l-.524-.767a.345.345,0,0,0-.126-.112.341.341,0,0,0-.162-.04h-.9a.357.357,0,0,1-.163-.04.352.352,0,0,1-.125-.112l-.607-.891a2.607,2.607,0,0,0,2.414-1.727c.256-1.188-.926-2.341-2.636-2.592a.594.594,0,0,1-.123-1.144,1.51,1.51,0,0,0-.6-.123,1.3,1.3,0,0,0-1.37,1.211,1.089,1.089,0,0,0,.058.347,6.262,6.262,0,0,0-2.211,1.716,7.7,7.7,0,0,1,1.981-.258c0-.032-.005-.064-.005-.1a.927.927,0,0,1,.928-.928h.013a.852.852,0,0,0-.52.712.479.479,0,0,0,.756.392.664.664,0,0,1,.637-.855.612.612,0,0,1,.1.007.744.744,0,0,0,.315,1.418.772.772,0,0,0,.128-.01.514.514,0,0,1-.018-.136.534.534,0,1,1,1.067,0c0,.641-.712.7-1.231.551a10.079,10.079,0,0,0-4.2-.43c-1.718.242-4.532,1.4-7.519,1.306a9.27,9.27,0,0,1-2.131-.333,1.979,1.979,0,0,1,.186.225,1.5,1.5,0,0,1,.134,1.522,2.094,2.094,0,0,0-1-1.55c-.186-.135-.261-.264-.23-.437l.136-.768a.339.339,0,0,0,.012.165.347.347,0,0,0,.088.143l.287.281a2.978,2.978,0,0,0-.53-2.173,2.827,2.827,0,0,0,.1-1.682.906.906,0,0,1-.455.722.6.6,0,0,0-.236.868c-.306-.156-.73-.726-.485-1.058.264-.359.987-.19,1.076-.806a2.078,2.078,0,0,0-1.1,0,1.382,1.382,0,0,0-1.106-.474,2.6,2.6,0,0,0-2.8,0,1.382,1.382,0,0,0-1.106.474,2.082,2.082,0,0,0-1.1,0c.089.616.812.447,1.076.806.245.332-.178.9-.485,1.058a.6.6,0,0,0-.236-.868.908.908,0,0,1-.455-.722,2.834,2.834,0,0,0,.1,1.682,2.979,2.979,0,0,0-.53,2.173l.288-.281a.347.347,0,0,0,.088-.143.339.339,0,0,0,.011-.165l.136.768c.031.173-.043.3-.229.437a2.092,2.092,0,0,0-1.005,1.55,1.5,1.5,0,0,1,.135-1.522,6.406,6.406,0,0,1-1.666-1.392.816.816,0,0,1,.01-1.045c.463-.662.573-1.368-.008-1.851a.939.939,0,0,0,.006-.107.906.906,0,0,0-.727-.888.77.77,0,0,1-.035.882.639.639,0,0,1-.1.876,1.028,1.028,0,0,0,.021-.209.948.948,0,0,0-.659-.934.707.707,0,0,0-1.2-.36.56.56,0,0,1,.513.5.943.943,0,0,0-.3.384h.017a.838.838,0,0,1,.838.838.882.882,0,0,1-.014.154.892.892,0,0,0-1.244-.676.708.708,0,0,0-1.155.065.809.809,0,0,1,.622.335,1.118,1.118,0,0,0,0,1.473.911.911,0,0,0,.95.187.235.235,0,0,1,.071-.011.223.223,0,1,1,0,.446.22.22,0,0,1-.142-.051.491.491,0,0,0-.8.377.4.4,0,0,0,0,.06.469.469,0,0,1-.146.023.486.486,0,0,1-.34-.14.658.658,0,0,0,.584.821,1.032,1.032,0,0,0,1.55.456.451.451,0,1,1,.358.809l-.351.077a.34.34,0,0,1-.168-.005.333.333,0,0,1-.145-.081l.8.762a.345.345,0,0,0,.146.082.34.34,0,0,0,.168.005l.657-.146a.351.351,0,0,1,.313.087l.551.524a.345.345,0,0,0-.146-.082.336.336,0,0,0-.167,0l-.657.145a.354.354,0,0,1-.313-.086l.736.7a.341.341,0,0,0,.313.087l.658-.144a.34.34,0,0,1,.168.005.344.344,0,0,1,.146.082l.551.524a.344.344,0,0,0-.146-.082.352.352,0,0,0-.168,0l-.656.145a.355.355,0,0,1-.314-.086l.736.7a.334.334,0,0,0,.146.082.34.34,0,0,0,.168.005l.8-.174q-1.158.654-2.465,1.481a1.823,1.823,0,0,1-1.725.138,1.982,1.982,0,0,0-.963-.114,1.046,1.046,0,0,0-.726.5,1.049,1.049,0,0,1,1.129.23,1.431,1.431,0,0,0-1.038-.006,1.235,1.235,0,0,0-.881,1.4.646.646,0,0,0-.219,1.064.661.661,0,0,1,.621-.516,1.223,1.223,0,0,0,.434.175.914.914,0,0,1,.179-.221,1.2,1.2,0,0,1-.011-.159,1.073,1.073,0,0,1,1.073-1.074.989.989,0,0,1,.145.01,1.074,1.074,0,0,0-.822,1.044,1.061,1.061,0,0,0,.017.188.676.676,0,0,0-.275,1.065,1.2,1.2,0,0,1,.954-.648,1.757,1.757,0,0,0,.495.071,1.805,1.805,0,0,0,.314-.028.834.834,0,0,1,.689-1.306.923.923,0,0,1,.118.008.859.859,0,0,0-.618.919.715.715,0,0,0,.6.475,1.065,1.065,0,0,1-.142.51,1.074,1.074,0,0,0,.883-.592.869.869,0,0,0,.643-.929.581.581,0,0,0-.22-.315c0-.012,0-.025,0-.037a.443.443,0,1,1,.769.3h.927a.342.342,0,0,0,.162-.041.333.333,0,0,0,.125-.112l.6-.882a.238.238,0,0,1,.085-.076.243.243,0,0,1,.111-.028h.728a.243.243,0,0,0-.111.028.238.238,0,0,0-.085.076l-.6.883a.353.353,0,0,1-.287.152h1.108a.339.339,0,0,0,.162-.041.328.328,0,0,0,.125-.112l.668-.985a1.336,1.336,0,0,1-.65-1.3,7.722,7.722,0,0,1,.244-1.084l.013-.11a.34.34,0,0,0-.021-.166.539.539,0,0,0-.083-.143l.57.584a.33.33,0,0,1,.1.137.334.334,0,0,1,.022.167l-.017.133c-.027.232-.319.732.223,1.19a1.649,1.649,0,0,0,.158.111l.385.242V108h.539v1.581a.345.345,0,0,0,.16.283l.527.335a.349.349,0,0,0,.324.026l.971-.422a.331.331,0,0,1-.165.027.344.344,0,0,1-.159-.052l-1.115-.71c.542-.458.249-.958.222-1.19l-.016-.133a.344.344,0,0,1,.021-.167.348.348,0,0,1,.1-.137l.57-.584a.535.535,0,0,0-.082.143.34.34,0,0,0-.021.166l.012.11c.046.4.446,1.111.113,1.511l1.019.646a.354.354,0,0,0,.159.053.345.345,0,0,0,.166-.028l1.015-.441a.351.351,0,0,1-.164.027.342.342,0,0,1-.16-.053l-1.1-.7a2.206,2.206,0,0,0-.2-1.725l-.035-.067a.34.34,0,0,1-.036-.164.323.323,0,0,1,.043-.161l.378-.682a.329.329,0,0,0-.042.16.336.336,0,0,0,.036.163l.139.271a3.047,3.047,0,0,1,.178.371c.62-.559.758-1.1.363-1.557l-.118-.139a.345.345,0,0,1-.075-.149.329.329,0,0,1,0-.168l.2-.753a.345.345,0,0,0,0,.166.337.337,0,0,0,.076.149l.388.453c.754.852.3,1.95-.6,2.788a1.538,1.538,0,0,1,.057.624l1.2.758a.352.352,0,0,0,.325.026l.864-.376a.409.409,0,0,1-.16.033.4.4,0,0,1-.122-.786c3.3-1,6.336-3.594,8.33-3.588.969,0,1.755.59,1.755,1.317a1.031,1.031,0,0,1-.059.34c-.425,1.194.194,2.334,1.829,2.774a.612.612,0,0,1,.452.59.638.638,0,0,1-.021.159,1.063,1.063,0,0,0,.114,0,1.331,1.331,0,0,0,1.089-.566c.281,0,.587-.019.9-.052a1,1,0,0,1,.086.257c.067.344-.052.654-.263.722a3.979,3.979,0,0,1-1.19-.021,1.227,1.227,0,0,0-1.215,1.226,1.179,1.179,0,0,0,.01.157.743.743,0,0,0-.255,1,1.837,1.837,0,0,1,.783-.536,1.11,1.11,0,0,1,1.373-1.028,1.221,1.221,0,0,0-1.064,1.352.52.52,0,0,0-.12.333.528.528,0,0,0,.185.4,1.251,1.251,0,0,1,.745-.605,1.316,1.316,0,0,1,.67-.056.947.947,0,0,1-.047-.3.965.965,0,0,1,.965-.966.99.99,0,0,1,.145.011.762.762,0,0,0-.339,1.375v.041a.666.666,0,0,0,.247.519.757.757,0,0,1,.744-.614,2.528,2.528,0,0,0,.772-.1.821.821,0,0,0,.571-.778.811.811,0,0,0-.3-.628,4.084,4.084,0,0,0-.066-1.643.616.616,0,0,1,.087-.006.658.658,0,0,1,.551.3m-16.809,6.949a.679.679,0,0,1,0-.273.391.391,0,1,1,.667.35c.073.007.148.011.226.011a2.184,2.184,0,0,0,.56-.07.645.645,0,0,0-.168-1.267.562.562,0,0,0-.058,0,.75.75,0,0,1,1.042.69c0,.021,0,.043,0,.063a4.253,4.253,0,0,0,2.649-1.43,5.063,5.063,0,0,1-1.125.124,4.959,4.959,0,0,1-1.266-.158,6.233,6.233,0,0,0-1.5-.226,2.277,2.277,0,0,0-2.479,2,2.085,2.085,0,0,0,1.794,1.918c2.371.484,5.16-.924,7.516-1.412a7.7,7.7,0,0,1,2.019-1.421,1.083,1.083,0,0,1-.034-.268v-.006c-3.126.514-5.939,2.118-8.479,2.105-.712,0-1.27-.277-1.36-.727m-.073-5.77a1.3,1.3,0,0,1,.141.008,1.565,1.565,0,0,0-1.021.934.731.731,0,0,0-.377,1.1,1.994,1.994,0,0,1,.962-.6,1.278,1.278,0,0,1,1.117-1.019,1.352,1.352,0,0,0-.709,1.8.733.733,0,0,1,.7-.536.71.71,0,0,1,.241.041.981.981,0,0,0,1.313-.923,1,1,0,0,0-.049-.31.62.62,0,0,1,.339.943,1.25,1.25,0,0,0,1.458-1.077,2.871,2.871,0,0,0,.843-.7l.17.829a.34.34,0,0,1-.007.168.336.336,0,0,1-.084.144l.7-.722a.326.326,0,0,0,.083-.145.337.337,0,0,0,.007-.167l-.207-1.012a.35.35,0,0,1,.091-.312l.553-.564a.34.34,0,0,0-.084.145.354.354,0,0,0-.006.168l.207,1.013a.348.348,0,0,1-.006.167.344.344,0,0,1-.082.143l.627-.652a.349.349,0,0,0,.083-.144.341.341,0,0,0,.007-.168l-.207-1.01a.336.336,0,0,1,.007-.167.341.341,0,0,1,.084-.145l.553-.564a.338.338,0,0,0-.084.145.348.348,0,0,0-.006.167l.208,1.013a.35.35,0,0,1-.089.31l.627-.651a.354.354,0,0,0,.09-.313l-.1-.494a1.241,1.241,0,0,1,.929-1.267.736.736,0,0,0,.085-.34c0-.567-.675-1.027-1.509-1.027a1.926,1.926,0,0,0-1.049.289c.109.323.132.651-.937.8a4.109,4.109,0,0,0-2.161.766c-.874.741-.8,1.732-1.3,2.107a1.835,1.835,0,0,0,.8-.011,2.237,2.237,0,0,0,.521-.181,1.173,1.173,0,0,1-.586.467,1.311,1.311,0,0,1-.823.84,1.205,1.205,0,0,1-.746.045l-1.023-.3a1.427,1.427,0,0,0-.394-.055,1.5,1.5,0,0,0-1.468,1.332.732.732,0,0,0-.528,1.1,2,2,0,0,1,.9-.528,1.23,1.23,0,0,1,1.182-.893m-5.44,9.331a4.385,4.385,0,0,0,.076-.97l-.3.35a2.648,2.648,0,0,0-.138-.294c-.033-.057-.061-.1-.1-.1a.393.393,0,0,1-.083.034,1.243,1.243,0,0,1-.244,0,.4.4,0,0,1-.082-.034c-.04.007-.067.046-.1.1a2.622,2.622,0,0,0-.138.294l-.3-.35a4.395,4.395,0,0,0,.077.97,3.388,3.388,0,0,1,1.331,0m.133.9c.034-.379-.4-.514-.8-.514s-.832.135-.8.514c.041.462.473.242.8.244s.758.218.8-.244m1.148-2.73a.161.161,0,0,0-.131.151.735.735,0,0,1-.517.727,4.165,4.165,0,0,1-.188,1.212c.343.717.08,1.218-.2,1.325s-.607-.035-.91-.035-.65.138-.915.035-.541-.608-.2-1.325a4.164,4.164,0,0,1-.187-1.212.736.736,0,0,1-.518-.727.161.161,0,0,0-.13-.151,1.3,1.3,0,0,1-.671-2.129c-.051.634-.106,1.529,1.19,1.648-.021.744.3.943.632.943a.968.968,0,0,0,.494-.123c.241-.128.075-.323.013-.381a.654.654,0,0,1-.21-.594c.007-.04.022-.06.059-.06h.878c.037,0,.053.02.06.06a.659.659,0,0,1-.21.594c-.062.058-.228.253.013.381a.965.965,0,0,0,.494.123c.331,0,.653-.2.632-.943,1.3-.119,1.241-1.014,1.19-1.648a1.3,1.3,0,0,1-.671,2.129m.351-2.471c0,.326-.238.688-.509.688h-.248a.435.435,0,1,1-.671,0h-.26a.224.224,0,0,0-.213.14.98.98,0,0,1,0-.381.28.28,0,0,1,.248-.21h1.142a.636.636,0,0,0,.515-.237m-.151-.54h-.4a.562.562,0,0,1-.452-.215l-.455-.594a.613.613,0,0,0-.232-.2h.45a.432.432,0,0,1,.349.179l.474.6c.106.128.139.213.264.231m-2.081-.981.582.818a.645.645,0,0,0,.3.26h-.533a.453.453,0,0,1-.418-.242l-.458-.7c-.175-.263-.244-.329-.445-.4h.495a.61.61,0,0,1,.473.266m-1.319.147.474.6c.106.128.139.213.264.231h-.4a.562.562,0,0,1-.452-.215l-.455-.594a.613.613,0,0,0-.232-.2h.45a.432.432,0,0,1,.349.179m-.287,2.062h-.249c-.27,0-.509-.362-.509-.688a.638.638,0,0,0,.516.237h1.142a.28.28,0,0,1,.248.21.98.98,0,0,1,0,.381.224.224,0,0,0-.213-.14h-.26a.435.435,0,1,1-.771.277.427.427,0,0,1,.1-.277m-1.408,5.442.138-.271a.337.337,0,0,0,.037-.163.35.35,0,0,0-.043-.161l.379.682a.354.354,0,0,1,.043.162.333.333,0,0,1-.037.164l-.034.067a2.366,2.366,0,0,0-.209,1.79,1.009,1.009,0,0,1-.687-1.11c-1.057-1-1.324-2.019-.569-2.871l.388-.453a.325.325,0,0,0,.075-.149.333.333,0,0,0,0-.166l.2.753a.337.337,0,0,1,0,.167.343.343,0,0,1-.075.15l-.118.138c-.4.46-.289,1.083.33,1.642a3.047,3.047,0,0,1,.179-.371m25.936,2.827a.871.871,0,0,0,.064-.328.857.857,0,0,0-.856-.858h-.866a.348.348,0,0,1-.288-.151l-.434-.641a.339.339,0,0,0,.125.111.331.331,0,0,0,.163.04h1.141a.348.348,0,0,1,.288.151l-.524-.768a.352.352,0,0,0-.288-.151h-1.132a.353.353,0,0,1-.162-.04.346.346,0,0,1-.126-.112l-.492-.724a.34.34,0,0,0,.125.111.334.334,0,0,0,.163.04h1.136a.348.348,0,0,1,.288.151l-.524-.768a.352.352,0,0,0-.288-.151h-.9a.346.346,0,0,1-.163-.041.34.34,0,0,1-.125-.111l-.607-.891a2.607,2.607,0,0,0,2.414-1.727c.256-1.189-.926-2.341-2.636-2.592a.595.595,0,0,1-.123-1.145,1.527,1.527,0,0,0-.6-.122,1.3,1.3,0,0,0-1.37,1.211,1.089,1.089,0,0,0,.058.347,6.262,6.262,0,0,0-2.211,1.716,7.7,7.7,0,0,1,1.981-.258c0-.032-.005-.064-.005-.1a.927.927,0,0,1,.928-.928h.013a.852.852,0,0,0-.52.712.48.48,0,0,0,.756.392.664.664,0,0,1,.637-.855.612.612,0,0,1,.1.007.744.744,0,0,0,.315,1.418.678.678,0,0,0,.128-.011.5.5,0,0,1-.018-.135.534.534,0,1,1,1.067,0c0,.641-.712.7-1.231.551a10.079,10.079,0,0,0-4.2-.43c-1.718.241-4.532,1.4-7.519,1.306a9.27,9.27,0,0,1-2.131-.333,1.894,1.894,0,0,1,.186.225,1.5,1.5,0,0,1,.134,1.522,2.094,2.094,0,0,0-1-1.55c-.186-.135-.261-.264-.23-.437l.136-.768a.339.339,0,0,0,.012.165.347.347,0,0,0,.088.143l.287.281a2.978,2.978,0,0,0-.53-2.173,2.827,2.827,0,0,0,.1-1.682.906.906,0,0,1-.455.722.6.6,0,0,0-.236.868c-.306-.157-.73-.726-.485-1.058.264-.359.987-.19,1.076-.806a2.078,2.078,0,0,0-1.1,0,1.382,1.382,0,0,0-1.106-.474,2.6,2.6,0,0,0-2.8,0,1.382,1.382,0,0,0-1.106.474,2.082,2.082,0,0,0-1.1,0c.089.616.812.447,1.076.806.245.332-.178.9-.485,1.058a.6.6,0,0,0-.236-.868.908.908,0,0,1-.455-.722,2.834,2.834,0,0,0,.1,1.682,2.979,2.979,0,0,0-.53,2.173l.288-.281a.347.347,0,0,0,.088-.143.339.339,0,0,0,.011-.165l.136.768c.031.173-.043.3-.229.437a2.092,2.092,0,0,0-1.005,1.55,1.5,1.5,0,0,1,.135-1.522,6.406,6.406,0,0,1-1.666-1.392.816.816,0,0,1,.01-1.045c.463-.663.573-1.368-.008-1.851a.939.939,0,0,0,.006-.107.906.906,0,0,0-.727-.888.768.768,0,0,1,.122.416.76.76,0,0,1-.157.465.64.64,0,0,1-.1.877,1.035,1.035,0,0,0,.021-.209.948.948,0,0,0-.659-.934.707.707,0,0,0-1.2-.36.56.56,0,0,1,.513.5.943.943,0,0,0-.3.384h.017a.838.838,0,0,1,.838.838.882.882,0,0,1-.014.154.928.928,0,0,0-.26-.5.918.918,0,0,0-.984-.174.708.708,0,0,0-1.155.065.809.809,0,0,1,.622.335,1.118,1.118,0,0,0,0,1.473.911.911,0,0,0,.95.187.208.208,0,0,1,.071-.012.224.224,0,1,1,0,.447.22.22,0,0,1-.142-.051.491.491,0,0,0-.8.377.4.4,0,0,0,0,.06.469.469,0,0,1-.146.023.486.486,0,0,1-.34-.14.658.658,0,0,0,.584.821,1.032,1.032,0,0,0,1.55.456.445.445,0,0,1,.258-.082.451.451,0,0,1,.1.89l-.351.078a.34.34,0,0,1-.168-.005.325.325,0,0,1-.145-.082l.8.763a.345.345,0,0,0,.146.082.34.34,0,0,0,.168.005l.657-.146a.336.336,0,0,1,.167,0,.329.329,0,0,1,.146.082l.551.524a.351.351,0,0,0-.313-.087l-.657.145a.354.354,0,0,1-.313-.086l.736.7a.33.33,0,0,0,.145.082.341.341,0,0,0,.168.005l.658-.144a.34.34,0,0,1,.168.005.344.344,0,0,1,.146.082l.551.524a.344.344,0,0,0-.146-.082.34.34,0,0,0-.168,0l-.656.145a.34.34,0,0,1-.168,0,.333.333,0,0,1-.146-.082l.736.7a.334.334,0,0,0,.146.082.34.34,0,0,0,.168.005l.8-.174q-1.158.654-2.465,1.481a1.823,1.823,0,0,1-1.725.138,1.97,1.97,0,0,0-.963-.114,1.046,1.046,0,0,0-.726.5,1.025,1.025,0,0,1,.389-.075,1.049,1.049,0,0,1,.74.305,1.436,1.436,0,0,0-1.038-.007,1.236,1.236,0,0,0-.881,1.4.647.647,0,0,0-.219,1.065.661.661,0,0,1,.621-.516,1.223,1.223,0,0,0,.434.175.914.914,0,0,1,.179-.221,1.2,1.2,0,0,1-.011-.159,1.073,1.073,0,0,1,1.073-1.074.99.99,0,0,1,.145.01,1.074,1.074,0,0,0-.822,1.044,1.061,1.061,0,0,0,.017.188.676.676,0,0,0-.275,1.065,1.2,1.2,0,0,1,.954-.648,1.757,1.757,0,0,0,.495.071,1.805,1.805,0,0,0,.314-.028.835.835,0,0,1,.689-1.307.771.771,0,0,1,.118.009.859.859,0,0,0-.618.918.712.712,0,0,0,.6.475,1.066,1.066,0,0,1-.142.511,1.076,1.076,0,0,0,.883-.592.869.869,0,0,0,.643-.929.587.587,0,0,0-.22-.316c0-.012,0-.024,0-.036a.443.443,0,1,1,.769.3h.927a.342.342,0,0,0,.162-.041.333.333,0,0,0,.125-.112l.6-.882a.238.238,0,0,1,.085-.076.231.231,0,0,1,.111-.028h.728a.231.231,0,0,0-.111.028.238.238,0,0,0-.085.076l-.6.882a.334.334,0,0,1-.125.112.339.339,0,0,1-.162.041h1.108a.339.339,0,0,0,.162-.041.328.328,0,0,0,.125-.112l.668-.985a1.336,1.336,0,0,1-.65-1.3,7.722,7.722,0,0,1,.244-1.084l.013-.11a.344.344,0,0,0-.021-.167.551.551,0,0,0-.083-.142l.57.584a.353.353,0,0,1,.118.3l-.017.134c-.027.232-.319.732.223,1.19a1.854,1.854,0,0,0,.158.111l.385.242V123.17h.539v1.581a.349.349,0,0,0,.16.283l.527.335a.353.353,0,0,0,.159.053.339.339,0,0,0,.165-.028l.971-.421a.342.342,0,0,1-.165.027.335.335,0,0,1-.159-.053l-1.115-.709c.542-.458.249-.958.222-1.19l-.016-.134a.341.341,0,0,1,.021-.166.348.348,0,0,1,.1-.137l.57-.584a.546.546,0,0,0-.082.142.344.344,0,0,0-.021.167l.012.11c.046.4.446,1.111.113,1.51l1.019.647a.352.352,0,0,0,.159.052.333.333,0,0,0,.166-.027l1.015-.441a.35.35,0,0,1-.324-.026l-1.1-.7a2.206,2.206,0,0,0-.2-1.725l-.035-.067a.343.343,0,0,1-.036-.164.33.33,0,0,1,.043-.162l.378-.682a.356.356,0,0,0-.006.324l.139.271a3.047,3.047,0,0,1,.178.371c.62-.559.758-1.1.363-1.558l-.118-.138a.343.343,0,0,1-.075-.15.325.325,0,0,1,0-.167l.2-.753a.345.345,0,0,0,0,.166.337.337,0,0,0,.076.149l.388.453c.754.852.3,1.95-.6,2.787a1.545,1.545,0,0,1,.057.625l1.2.758a.351.351,0,0,0,.325.026l.864-.376a.409.409,0,0,1-.16.033.4.4,0,0,1-.122-.786c3.3-1,6.336-3.594,8.33-3.588.969,0,1.755.59,1.755,1.317a1.031,1.031,0,0,1-.059.34c-.425,1.194.194,2.334,1.829,2.773a.614.614,0,0,1,.452.591.638.638,0,0,1-.021.159,1.063,1.063,0,0,0,.114,0,1.331,1.331,0,0,0,1.089-.566c.281,0,.587-.019.9-.052a1,1,0,0,1,.086.257c.067.343-.052.654-.263.722a3.979,3.979,0,0,1-1.19-.021,1.227,1.227,0,0,0-1.215,1.226,1.153,1.153,0,0,0,.01.156.745.745,0,0,0-.255,1,1.828,1.828,0,0,1,.783-.536,1.11,1.11,0,0,1,1.373-1.028,1.221,1.221,0,0,0-1.064,1.352.525.525,0,0,0,.065.734,1.254,1.254,0,0,1,.745-.6,1.316,1.316,0,0,1,.67-.056.948.948,0,0,1-.047-.3.965.965,0,0,1,.965-.965.99.99,0,0,1,.145.011.761.761,0,0,0-.339,1.374v.042a.668.668,0,0,0,.247.519.757.757,0,0,1,.744-.614,2.528,2.528,0,0,0,.772-.1.821.821,0,0,0,.571-.778.811.811,0,0,0-.3-.628,4.084,4.084,0,0,0-.066-1.643.616.616,0,0,1,.087-.006.658.658,0,0,1,.551.3m12.537-53.218h-1.134V138.9h1.134Z" fill="#fff"/>
    <path id="Path_4" data-name="Path 4" d="M1524.609,102.158h-1.585V109.4h1.256v-4.78l.037-.006,1.56,4.786h.852l1.554-4.755.037.006V109.4h1.262v-7.241H1528l-1.685,5.693h-.037Zm-4.643,0V106.9a1.778,1.778,0,0,1-.382,1.216,1.462,1.462,0,0,1-2.079,0,1.769,1.769,0,0,1-.386-1.216v-4.739h-1.255v4.748a2.48,2.48,0,0,0,.739,1.912,3.081,3.081,0,0,0,3.879,0,2.481,2.481,0,0,0,.74-1.912v-4.748Zm-5.9,0h-1.256V109.4h1.256Zm-6.861.957h1.162a1.008,1.008,0,0,1,.821.329,1.351,1.351,0,0,1,.273.889,1.27,1.27,0,0,1-.27.87,1.047,1.047,0,0,1-.824.305h-1.162Zm1.268,3.35a.945.945,0,0,1,.764.317,1.341,1.341,0,0,1,.268.889v.653c0,.215.005.427.015.634a1.241,1.241,0,0,0,.078.441h1.3v-.106a1,1,0,0,1-.109-.41c-.018-.186-.028-.371-.028-.553v-.665a2.134,2.134,0,0,0-.261-1.1,1.411,1.411,0,0,0-.845-.625,1.838,1.838,0,0,0,.795-.665,1.8,1.8,0,0,0,.274-1,1.985,1.985,0,0,0-.625-1.56,2.5,2.5,0,0,0-1.731-.559h-2.418V109.4h1.256v-2.934Zm-4.693-1.311h-2.667v-2.039h3.121v-.957h-4.376V109.4h4.376v-.957h-3.121v-2.331h2.667Zm-6.091,0h-2.667v-2.039h3.121v-.957h-4.376V109.4h4.376v-.957h-3.121v-2.331h2.667Zm-5.128-3h-4.96v.957h1.833V109.4h1.256v-6.284h1.871Zm-7.155,6.1a1.342,1.342,0,0,1-.938.291,1.444,1.444,0,0,1-.948-.3,1.2,1.2,0,0,1-.37-.987h-1.206l-.019.037a1.9,1.9,0,0,0,.678,1.662,2.967,2.967,0,0,0,1.865.548,2.875,2.875,0,0,0,1.83-.537,1.992,1.992,0,0,0,.14-2.865,4.386,4.386,0,0,0-1.678-.811,2.976,2.976,0,0,1-1.116-.52.958.958,0,0,1-.27-.723,1.035,1.035,0,0,1,.276-.741,1.118,1.118,0,0,1,.849-.293,1.043,1.043,0,0,1,.854.35,1.4,1.4,0,0,1,.289.925h1.206l.013-.037a2.02,2.02,0,0,0-.606-1.614,2.5,2.5,0,0,0-1.756-.581,2.575,2.575,0,0,0-1.738.553,1.82,1.82,0,0,0-.643,1.453,1.737,1.737,0,0,0,.538,1.39,4.5,4.5,0,0,0,1.718.795,2.937,2.937,0,0,1,1.06.53.95.95,0,0,1,.289.721.98.98,0,0,1-.317.756m-5.059-6.1h-1.256V109.4h1.256Zm-3.425,0h-1.261v5l-.038.013-2.778-5.01h-1.256V109.4h1.256v-5l.037-.012,2.779,5.016h1.261Zm-7.21,0h-1.256V109.4h1.256Zm-8.13,0H1460V109.4h1.256v-4.78l.037-.006,1.56,4.786h.852l1.554-4.755.037.006V109.4h1.262v-7.241h-1.579l-1.684,5.693h-.038Zm-4.724,6.1a1.343,1.343,0,0,1-.938.291,1.444,1.444,0,0,1-.948-.3,1.2,1.2,0,0,1-.37-.987H1453.4l-.018.037a1.9,1.9,0,0,0,.677,1.662,2.966,2.966,0,0,0,1.865.548,2.873,2.873,0,0,0,1.83-.537,1.992,1.992,0,0,0,.14-2.865,4.379,4.379,0,0,0-1.678-.811,2.984,2.984,0,0,1-1.116-.52.958.958,0,0,1-.27-.723,1.035,1.035,0,0,1,.276-.741,1.119,1.119,0,0,1,.849-.293,1.047,1.047,0,0,1,.855.35,1.408,1.408,0,0,1,.289.925h1.206l.012-.037a2.02,2.02,0,0,0-.606-1.614,2.5,2.5,0,0,0-1.756-.581,2.572,2.572,0,0,0-1.737.553,1.821,1.821,0,0,0-.644,1.453,1.737,1.737,0,0,0,.538,1.39,4.493,4.493,0,0,0,1.719.795,2.93,2.93,0,0,1,1.059.53.95.95,0,0,1,.289.721.976.976,0,0,1-.317.756m-4.388-6.1h-4.96v.957h1.834V109.4h1.255v-6.284h1.871Zm-6.4,0h-1.256V109.4h1.256Zm-3.132,0h-1.256V109.4h1.256Zm-2.717,0h-4.96v.957h1.834V109.4h1.256v-6.284h1.87Zm-7.409,6.1a1.343,1.343,0,0,1-.938.291,1.444,1.444,0,0,1-.948-.3,1.2,1.2,0,0,1-.37-.987h-1.206l-.019.037a1.9,1.9,0,0,0,.678,1.662,2.966,2.966,0,0,0,1.865.548,2.875,2.875,0,0,0,1.83-.537,1.992,1.992,0,0,0,.14-2.865,4.379,4.379,0,0,0-1.678-.811,2.977,2.977,0,0,1-1.116-.52.959.959,0,0,1-.27-.723,1.035,1.035,0,0,1,.276-.741,1.118,1.118,0,0,1,.849-.293,1.043,1.043,0,0,1,.854.35,1.4,1.4,0,0,1,.289.925h1.206l.013-.037a2.02,2.02,0,0,0-.606-1.614,2.5,2.5,0,0,0-1.756-.581,2.574,2.574,0,0,0-1.738.553,1.82,1.82,0,0,0-.643,1.453,1.737,1.737,0,0,0,.538,1.39,4.493,4.493,0,0,0,1.718.795,2.928,2.928,0,0,1,1.06.53.95.95,0,0,1,.289.721.977.977,0,0,1-.317.756m-6.24-6.1V106.9a1.783,1.783,0,0,1-.382,1.216,1.463,1.463,0,0,1-2.08,0,1.769,1.769,0,0,1-.385-1.216v-4.739h-1.256v4.748a2.481,2.481,0,0,0,.74,1.912,3.081,3.081,0,0,0,3.879,0,2.48,2.48,0,0,0,.739-1.912v-4.748Zm-7.173,4.649a2.2,2.2,0,0,1-.336,1.287,1,1,0,0,1-.845.478,1.1,1.1,0,0,1-.911-.425,2.072,2.072,0,0,1-.332-1.284h-1.212l-.019.037a2.565,2.565,0,0,0,.65,1.961,2.474,2.474,0,0,0,1.824.669,2.285,2.285,0,0,0,1.753-.737,2.8,2.8,0,0,0,.684-1.986v-6.458H1419.4Z" fill="#fff"/>
  </g>
</svg>
